<?xml version="1.0" encoding="utf-8"?>
<!-- Generator: Adobe Illustrator 27.9.0, SVG Export Plug-In . SVG Version: 6.00 Build 0)  -->
<svg version="1.1" id="レイヤー_1" xmlns="http://www.w3.org/2000/svg" xmlns:xlink="http://www.w3.org/1999/xlink" x="0px"
	 y="0px" viewBox="0 0 76.7 76.7" style="enable-background:new 0 0 76.7 76.7;" xml:space="preserve">
<style type="text/css">
	.st0{fill:none;stroke:#000000;stroke-width:2;stroke-miterlimit:10;}
	.st1{fill:none;stroke:#000000;stroke-width:3;stroke-linecap:round;stroke-linejoin:round;stroke-miterlimit:10;}
</style>
<text transform="matrix(1 0 0 1 338.7449 91.711)" style="font-family:'SegoeScript'; font-size:51.6966px;">top</text>
<text transform="matrix(1 0 0 1 710.1729 27.5435)" style="font-family:'MicrosoftJhengHeiUIRegular'; font-size:51.6966px;">↑</text>
<text transform="matrix(1 0 0 1 693.9324 27.5435)" style="font-family:'Montserrat-Regular'; font-size:51.6966px;">↑</text>
<text transform="matrix(1 0 0 1 626.8044 27.5435)" style="font-family:'KozMinPr6N-Regular-90ms-RKSJ-H'; font-size:51.6966px;">↑</text>
<text transform="matrix(1 0 0 1 352.9458 27.5435)" style="font-family:'TsukuBRdGothicStd-B-90ms-RKSJ-H'; font-size:51.6966px;">↑</text>
<g>
	<g>
		<path d="M611.8,6.2l-9.7,10.4l-2.4-2.2l13.7-14.1h0.2l13.7,14.1l-2.4,2.2l-9.7-10.4v22.7h-3.5L611.8,6.2L611.8,6.2z"/>
	</g>
</g>
<text transform="matrix(1 0 0 1 515.2856 27.5435)" style="font-family:'Montserrat-Regular'; font-size:51.6966px;">↑</text>
<g>
	<path d="M107.2,61c-0.7,0-1.4-0.4-1.4-1.3c0.1-4.2,0.1-9,0.1-39.3c0-0.6-0.1-0.8-0.2-0.8c-0.1,0-0.3,0.2-5.7,9.6
		c-0.3,0.5-0.8,0.7-1.2,0.7c-0.8,0-1.7-0.6-1.7-1.4c0-0.5,0.1-0.5,6.6-10.7c0.6-1.2,2-2.1,3.4-2.1c1.2,0,2.5,0.6,3.6,2.1
		c1,1.4,6.4,9.2,6.4,10.4c0,0.9-0.9,1.7-1.7,1.7c-0.5,0-1-0.3-1.3-0.9c-0.8-1.7-5.1-9.3-5.4-9.3c-0.2,0-0.2,0.3-0.2,0.8
		c0,2.3,0,5.8,0,10c0,10,0,23.3,0.1,29.3C108.6,60.6,107.9,61,107.2,61z"/>
</g>
<circle class="st0" cx="37.6" cy="38.6" r="37.4"/>
<polyline class="st1" points="24.5,43.6 37.6,30.5 50.7,43.6 "/>
</svg>
