<svg version="1.1" id="nishikigoi_1_" xmlns="http://www.w3.org/2000/svg" xmlns:xlink="http://www.w3.org/1999/xlink" x="0px"
	 y="0px" viewBox="0 0 4800 3496" style="enable-background:new 0 0 4800 3496;" xml:space="preserve">
<style type="text/css">
	.st0{opacity:0.3;fill:#FFFFFF;enable-background:new;}
	.st1{opacity:0.57;fill:#FFFFFF;enable-background:new;}
	.st2{opacity:0.37;fill:#82A5B7;enable-background:new;}
	.st3{fill:#FFFFFF;}
	.st4{fill:#EF8270;}
</style>
<g id="nishikigoi">
	<circle class="st0" cx="441.8" cy="2151.5" r="12.9"/>
	<circle class="st0" cx="483.4" cy="2098.8" r="8"/>
	<circle class="st0" cx="441.8" cy="2151.5" r="12.9"/>
	<circle class="st0" cx="483.4" cy="2098.8" r="8"/>
	<circle class="st0" cx="382.2" cy="789.5" r="12.9"/>
	<circle class="st0" cx="439.6" cy="665.8" r="21.2"/>
	<circle class="st0" cx="423.9" cy="736.7" r="8"/>
	<circle class="st0" cx="2302" cy="1945.6" r="12.9"/>
	<circle class="st0" cx="2359.4" cy="1821.9" r="21.2"/>
	<circle class="st0" cx="2343.7" cy="1892.8" r="8"/>
	<circle class="st0" cx="2302" cy="1945.6" r="12.9"/>
	<circle class="st0" cx="2359.4" cy="1821.9" r="21.2"/>
	<circle class="st0" cx="2343.7" cy="1892.8" r="8"/>
	<circle class="st0" cx="3866.2" cy="1758" r="12.1"/>
	<circle class="st0" cx="3919.8" cy="1642.5" r="19.8"/>
	<circle class="st0" cx="3905.1" cy="1708.7" r="7.4"/>
	<circle class="st0" cx="3866.2" cy="1758" r="12.1"/>
	<circle class="st0" cx="3919.8" cy="1642.5" r="19.8"/>
	<circle class="st0" cx="3905.1" cy="1708.7" r="7.4"/>
	<circle class="st0" cx="1640" cy="366.9" r="10.7"/>
	<circle class="st0" cx="1602.4" cy="243.1" r="20.3"/>
	<circle class="st0" cx="1642.2" cy="315.2" r="6"/>
	<circle class="st0" cx="1640" cy="366.9" r="10.7"/>
	<circle class="st0" cx="1602.4" cy="243.1" r="20.3"/>
	<circle class="st0" cx="1642.2" cy="315.2" r="6"/>
	<path class="st1" d="M1018.7,1516.8c45.4,97.2,71.9,203.2,76.3,310.3c2.3,53.5-0.8,107.1-9.1,160c-8.1,52.9-21.9,104.7-41,154.7
		c-9.5,24.9-20.2,49.4-31.9,73.3s-24.4,47.4-38,70.2c-27.4,45.7-59.2,88.7-95,128.2c-71.7,79.2-158.3,143.5-254.8,189.4
		c-48.2,22.9-98.4,41.2-150.1,54.4s-104.7,21.4-158,24.2c-26.7,1.4-53.4,1.6-80.1,0.4c-26.7-1.2-53.3-3.7-79.8-7.4
		c-160.3-22.8-310.2-92.5-431-200.2c-40.1-35.8-76.6-75.5-108.9-118.5c-32.3-43.1-60.4-89.2-83.7-137.7
		c-23.4-48.6-41.9-99.4-55.4-151.6c-13.5-52.3-21.7-105.8-24.7-159.7c-2.9-54-0.4-108.1,7.3-161.6c7.7-53.6,20.7-106.2,39-157.1
		c36.8-102,93.4-195.7,166.5-275.8c36.5-39.9,76.8-76.1,120.3-108.1c87.2-64,186.1-110.3,291.2-136.4c158-39.1,324.1-30.2,477,25.4
		c50.6,18.4,99.3,41.6,145.3,69.4s89.2,60.1,128.9,96.3c39.7,36.2,75.7,76.3,107.5,119.7C968.5,1421.8,995.9,1468.1,1018.7,1516.8z
		 M1007.3,1522.2c-22.7-47.7-50.1-93.1-81.6-135.4c-63.2-84.8-142.6-156.3-233.6-210.4c-136.7-81.3-294.5-120.3-453.3-112.3
		c-52.5,2.7-104.7,10.6-155.7,23.6c-102.1,26-198.2,71.7-282.7,134.6c-84.4,62.8-155.6,141.8-209.3,232.2
		c-26.8,45.1-49.1,92.7-66.8,142.1c-17.7,49.4-30.6,100.3-38.7,152.1c-16.2,104-11.6,210.2,13.3,312.5
		c12.5,51.1,29.9,100.9,52,148.6c22.2,47.8,48.9,93.4,79.9,136c31,42.7,66.2,82.2,105,117.9c157.8,145.2,366.9,221.8,581.2,212.9
		c53.1-2.2,105.8-9.8,157.4-22.4c103.6-25.5,201.2-71.2,287.2-134.4c42.9-31.6,82.5-67.3,118.4-106.7c35.8-39.4,67.6-82.3,95-128
		c13.7-22.8,26.1-46.4,37.2-70.6c11-24.2,20.8-48.9,29.3-74.1c8.4-25.2,15.7-50.7,21.8-76.5c6.1-25.8,11.2-51.8,14.9-78.1
		c7.5-52.4,9.8-105.5,7-158.4c-2.8-52.8-10.9-105.3-23.9-156.5C1048.1,1619.8,1030.1,1569.9,1007.3,1522.2z"/>
	<path class="st1" d="M5143.8,1485c-37.9,25.5-78.3,47.1-120.6,64.3c-42.3,17.2-86.3,30-131.2,38.1c-44.9,8.1-90.6,11.5-136.2,10.3
		l-8.5-0.3c-2.9-0.1-5.7-0.2-8.5-0.4l-8.5-0.5l-4.3-0.2l-4.3-0.3c-11.3-0.9-22.7-2-34-3.5c-22.6-2.9-45-7-67.2-12.2
		s-44-11.4-65.6-18.7l-8.1-2.7l-8-2.9l-8-2.9l-8-3.1l-8-3l-7.9-3.2l-7.9-3.2l-7.8-3.4c-83.6-36.4-159.4-88.5-223.6-153.3
		c-32-32.3-61-67.5-86.6-105.1c-51.1-75.2-88.5-159.9-108.7-248.7c-10.2-44.4-16.1-89.8-17.7-135.3c-1.6-45.6,1.2-91.2,8.4-136.2
		c7.2-45.1,18.7-89.4,34.6-132.2c15.9-42.9,36-84,60.2-122.8c98.4-157.6,258.3-266.8,440.9-301c90.5-16.8,183.5-15.2,273.3,4.8
		c89.8,20.1,174.8,57.4,250.5,109.7c37.7,26,72.9,55.6,105.1,88.3c64.4,65.4,116.2,142.2,152.6,226.5c18.2,42,32.4,85.7,42.3,130.4
		c20,89.6,22.6,182.1,7.7,272.7c-7.5,45.1-19.4,89.4-35.5,132.2c-16.2,42.8-36.6,83.9-61.1,122.5
		C5284.5,1367.3,5219.9,1433.8,5143.8,1485z M5140.1,1479.6c75.1-51,138.7-117,186.9-193.8c24-38.3,44.1-79,59.9-121.3
		s27.4-86.2,34.6-130.8c14.4-89.4,11.4-180.8-8.7-269.1c-10-44-24.2-87-42.3-128.4c-36.3-82.9-87.6-158.3-151.3-222.5
		c-31.8-32-66.5-60.9-103.7-86.4c-74.6-51-158.2-87.3-246.5-106.8c-22-4.9-44.2-8.7-66.5-11.4s-44.8-4.4-67.3-5
		c-45.1-1.1-90.1,2.3-134.5,10.3c-180.1,32.5-338.5,138.8-436.9,293.2c-48.6,76.2-81.3,162.6-96.3,251.9
		c-15,89.7-12.6,181.4,7.1,270.2c9.8,44.3,23.8,87.6,41.8,129.3c36.1,83.6,87.5,159.8,151.4,224.7c64,64.9,139.8,117,223.3,153.5
		l7.8,3.4l7.9,3.2l7.9,3.2l8,3l8,3l8,2.8l8,2.8l8.1,2.6c21.7,6.9,43.6,12.6,65.9,17.3c22.2,4.7,44.6,8.3,67.2,10.8
		c11.3,1.3,22.5,2.3,33.9,3l4.2,0.3l4.2,0.2l8.5,0.4c2.8,0.2,5.7,0.2,8.5,0.3l8.5,0.2c45.3,0.8,90.6-3,135.2-11.3
		C4980.3,1565.7,5065.1,1530.7,5140.1,1479.6L5140.1,1479.6z"/>
	<path class="st1" d="M1781.1,880.8c-28.4,18.2-58.5,33.5-89.9,45.9c-262.5,104.2-559.8-24.1-664-286.5
		c-63.3-159.5-42.5-340.1,55.6-480.9c9.5-13.6,19.7-26.8,30.5-39.5s22.2-24.8,34.2-36.3c24-23.1,50.1-43.8,78-61.9
		C1309.8-33.3,1408.4-62,1509-61c16.7,0.2,33.3,1.1,49.9,2.9c16.6,1.8,33.1,4.4,49.4,7.7C1674-36.8,1736.4-10.5,1792,27
		c27.8,18.8,53.7,40.3,77.2,64.2c23.6,23.9,44.8,50.1,63.3,78.2c75.4,114,102,253.5,73.9,387.3c-6.9,33.1-17.1,65.5-30.3,96.7
		c-13.3,31.2-29.8,60.9-49.2,88.7c-19.4,27.7-41.6,53.4-66.2,76.7C1836.2,841.8,1809.6,862.6,1781.1,880.8z M1773,868.2
		c27.4-17.9,52.9-38.6,76.2-61.6c23.2-23,44.1-48.2,62.5-75.3c18.3-27,34.1-55.6,47.2-85.6c39.5-90.5,51.5-190.6,34.6-287.9
		c-2.8-16.1-6.4-32.1-10.8-47.9s-9.5-31.4-15.4-46.7c-23.8-61.5-59.4-117.7-104.9-165.5c-45.6-48-100.2-86.4-160.8-113.2
		c-30.3-13.3-61.8-23.7-94.1-30.9c-97.8-21.9-199.9-14-293.2,22.8c-30.9,12.2-60.6,27.4-88.5,45.4c-56.1,36.1-104.3,83-141.8,138.1
		c-75.6,110.9-104.2,247.3-79.5,379.2c6.1,32.5,15.4,64.3,27.8,95c24.8,61.4,61.4,117.4,107.6,164.7
		C1307.2,970.4,1572.5,999.5,1773,868.2z"/>
	<path class="st1" d="M4395.9,1653.6c-19.7,24.4-41.8,46.8-65.9,66.9c-148.4,123.8-356.9,145.9-528,55.9
		c-55.3-29.2-104.5-68.9-144.5-116.9c-60.2-72.3-97.6-160.8-107.4-254.4c-23.6-225,114.1-435.7,329.6-504.6
		c14.8-4.7,29.8-8.7,45.1-12c15.2-3.3,30.6-5.8,46-7.6c62.1-7.1,125-2,185.1,15c30.1,8.5,59.2,20,87,34.3
		c172.4,88.5,274.4,272.3,258.2,465.4c-2.6,31.4-8.5,62.4-17.4,92.6C4465.7,1548.5,4435.3,1604.9,4395.9,1653.6z M4387.8,1647.1
		c19.1-24,35.8-49.9,49.8-77.2c13.9-27.3,25.2-55.9,33.6-85.3c16.9-59,22.4-120.7,16.1-181.8c-16.4-155.8-109.2-293.2-247.5-366.6
		c-54.7-29-114.5-46.9-176.1-52.7c-190.6-17.9-373.1,81.4-461.5,251.1c-7.1,13.8-13.6,27.8-19.4,42.3c-5.8,14.4-10.8,29.1-15,44
		c-34.6,120.5-20,249.8,40.5,359.6c14.9,27.1,32.5,52.6,52.5,76.2c40,47.2,88.9,86.2,143.8,114.7c168.9,87.5,373.8,64.4,519.1-58.3
		C4347.2,1693.2,4368.6,1671.1,4387.8,1647.1L4387.8,1647.1z"/>
	<path class="st1" d="M2462.5,2172.2l2.6,19.6c0.6,6.6,1.1,13.1,1.6,19.7c0.2,1.6,0.2,3.3,0.2,4.9l0.2,4.9l0.3,9.9
		c0,0.8,0.1,1.6,0.1,2.5l-0.1,2.5l-0.1,4.9l-0.2,9.9c-1,26.4-4.5,52.6-10.7,78.3c-38.1,158.6-167.6,278.8-328.6,305
		c-26.1,4.2-52.6,6-79,5.2c-26.5-0.8-52.8-4.3-78.6-10.3c-218.4-50.6-354.4-268.6-303.9-487c0.1-0.4,0.2-0.8,0.3-1.3
		c12.3-52.2,35-101.4,66.7-144.7c31.6-43.3,71.4-79.9,117.2-107.7c22.8-13.9,46.9-25.4,72-34.6c50.2-18.3,103.5-26.5,156.8-24.1
		c163.6,7.1,306.8,111.9,363.1,265.6C2451.8,2120.5,2458.4,2146.1,2462.5,2172.2z M2462.1,2172.3c-4.3-26-11.1-51.6-20.3-76.3
		c-18.5-49.5-46.7-94.8-82.8-133.4c-54.3-57.9-124.6-98.4-201.9-116.4c-25.5-5.9-51.6-9.3-77.8-10.1c-52.5-1.6-104.7,7.1-153.8,25.5
		c-73.8,27.8-137.7,76.8-183.6,140.9c-30.4,42.5-52.3,90.4-64.7,141.1c-52.2,214.8,79.6,431.1,294.3,483.3
		c51.1,12.4,104.2,14.6,156.2,6.5c26.1-4.1,51.7-10.7,76.5-19.8s48.6-20.6,71.1-34.4C2414.2,2493.9,2488,2333.2,2462.1,2172.3
		L2462.1,2172.3z"/>
	<path class="st2" d="M1329.2,1429.8c3.6-13.6,9.2-35.1,9.9-36.5c0.9-2,8.5-49.7,9.3-57.8c0.5-4.4-9.1-23.6-9.1-23.6
		s-13.4-13.8-24.9-22.4c-2.7-3.7-5.4-7.4-8.3-11l-0.5-0.4c-1.1-0.7-2.2-1.3-3.4-1.8c-2.7-1.3-28.5-5-28.5-5
		c15.5,22.8,52.4,62.8,41.3,132.5c-0.2,0.3-0.4,0.5-0.5,0.8c-9.6,15.6-64.8,89.8-225.4,101.3c-1.5-2.9-3.6-7.2-4.5-8.7
		c-1.5-2.5-40,1.2-46.2,3.1c-4.7,1.4-10.6,7.2-21.7,16.2c-34,8.8-62.9,22-85.8,36.9c-36.5,23.6-40.5,29.5-66.2,49.1
		s-18,13.3-35.3,35.7s-1.4,26,10.8,31.1s84,9.5,139.8,7.1c20.1-0.7,40.1-3.1,59.8-7c15.7,11.9,39.9,23.2,51.3,28.1
		c15.5,6.7,78.9-2.2,78.4-4.7s1.2-4.5-5.1-9.7c-6.6-5.4-36.5-27.2-54.6-37.1c16.4-7.7,32.2-16.6,47.3-26.5
		c7.4-4.8,14.9-10,22.5-15.5c12.3-0.1,36.5-0.6,41.5-1.5c6.7-1.3,20.8-13.1,24.8-18.3s1.3-6.5-2.8-8c-3.2-1.1-11.4-2.6-22.9-4
		c46.8-39.2,88.3-82.9,97.2-104C1323.6,1453.1,1327.2,1440.6,1329.2,1429.8z"/>
	<path class="st2" d="M311,851.6c14.8-6.3,31.4-13.4,48.7-20.9h0.1c4.6-1.5,23.1-9.9,41.9-18.9c25.1-11.7,49.7-24.1,70.4-36.7
		c35.9-19.3,92.4-51.3,145.7-93.3c26.6-21,49.3-39.8,68.2-56.5c2.5,8.1,6,18.2,8.5,21.3c4.4,5.5,6.8,5.5,10.6,8s8.5,3.8,11.8,0.2
		s5-17,5.5-30.6c0.4-13.4-0.9-13.9-2.5-29.9c15.9-15.3,26.7-27.3,32.2-35.3c22.8-33,35.4-67.7,35.4-67.7c11-18.2,21.4-34.3,22.3-43
		s-4.8-23.5-24.3-20.9s-66.1,27.4-106.7,51.7c-9.3,5.6-22,14.3-36.3,25c-4.1-0.1-8.4-0.1-13.2,0.2c-17,1-17.4-0.4-30.9,2.1
		s-26.5,6.3-29.5,10.1s-1,8.2,2,11.5s3.4,5.7,9.5,9.2c2.5,1.5,8.8,2.8,15.3,4c-37.8,31.7-76.5,68.3-96.3,95.6
		c-36.9,50.8-60.1,92.5-81.1,118.6c-19.4,24.1-27.3,30.4-46.5,39.8h-0.2c-9.1,4.7-18.5,8.7-28.1,11.9c-13.7,4.4-30.2,12-52.5,20.7
		s-34.7,20.5-36,21.5s-4.5,4.8-5.4,8.5s-14.4,25.7-14,27.5S281.6,864.2,311,851.6z"/>
	<path class="st2" d="M1466,2029.9c12.9,9.6,27.3,20.4,42.6,31.6l0.1,0.1c3.7,3.2,20.2,15,37.4,26.7c22.8,15.8,45.9,30.8,67.1,42.4
		c34.7,21.3,90.8,54,153.9,78.9c31.5,12.4,59.2,22.5,83.1,30.6c-5.8,6.3-12.8,14.3-14.2,18.1c-2.5,6.6-1.3,8.6-1.6,13.2
		s1,9.2,5.7,10.3s17.2-4.2,29.2-10.7c11.8-6.4,11.5-7.8,24.6-17.2c21.3,6,37.1,9.3,46.8,10.1c40,3.1,76.3-3.5,76.3-3.5
		c21.2,0.4,40.4,1.2,48.4-2.4s17.9-15.9,5.8-31.5s-57.1-43.3-98.4-66.1c-9.6-5.3-23.5-11.8-39.9-18.8c-2-3.6-4.2-7.3-6.8-11.4
		c-9.5-14.2-8.5-15.2-17.4-25.6s-18.8-19.7-23.6-20.4s-7.7,3.2-9,7.6s-3.2,5.8-3.1,12.9c0,2.9,2,9.1,4.3,15.3
		c-46.4-16.7-97.5-31.7-131.1-35.1c-62.5-6.3-110.1-5.4-143.3-10.4c-30.6-4.6-40-8.3-57.8-20.1l-0.1-0.2
		c-8.6-5.5-16.8-11.6-24.5-18.3c-10.7-9.7-25.6-20.1-44.3-34.9s-35.2-19.7-36.7-20.2s-6.4-1.4-10.1-0.4s-29.4,0.5-30.8,1.8
		S1440.3,2010.9,1466,2029.9z"/>
	<path class="st2" d="M681.6,1271.5c-7.2-4.7,3.5-5.7-40.2,8.6c-37.6,12.3-84,52.2-115.6,77.4l0.1-0.2l-2.5-0.2
		c5.9-4.2,11.5-8.8,16.8-13.7c16.9-15.8,54.3-39.9,66.1-57.4s1.5-18.2,2.4-33.1s0.8-16.2-2.8-14.5s-2.3,6.2-17.8,26.3
		s-71.6,78.8-97.5,96.3l0.2,0.1c-25.2,13.1-88,51.4-136.6,127.9c-73.5,115.8-63.2,183.8-62.5,214.5c2.5,48.1,4.8,74.4,2.8,85.6
		s-8.1,54.6,10.4,54.9s24,2.5,42.4-19.2s33.9-56.6,61.3-97.5c7.1-10.6,13.6-25.6,19.3-43.2c9.8-8,27.8-23.2,41.1-40.3
		c16.9-21.7,18.9-30.5,14.3-37.8c-0.9-1.3-1.8-2.5-2.9-3.6c-5.5-5.9-11.5-6.4-18.6,0.1c-3.6,3.2-10.6,8-17.2,12.3
		c6.1-35.3,9.3-71.5,8.5-99.4c-1.4-53.5,12.7-97.4,62-132.5c19.9-9.7,64.9-19.4,76.3-23.2s26.9-2.2,50.7-14.9
		c14.9-7.9,24.1-20,30.6-32.3c0.7-4.4,7.7-17.1,9.5-21.9C689,1272.6,685.5,1274,681.6,1271.5z"/>
	<path class="st2" d="M993.9,2636.5c4.9-2.9,9.5-5.9,13.7-8.7c16.2-10.8,12.5-11.8,10.8-16.1c-3.2-8,6.2-2.6-37.9-16.4
		c-37.9-11.9-99.2-6.3-139.7-4.1l0.2-0.1l-1.9-1.6c7.3,0,14.5-0.5,21.8-1.4c23-3,67.7-1,87.5-8.3s11.9-14,21.3-25.7
		s-43.2-12.5-67.6-5.1s-60.6,25.4-92,24.6l0.1,0.2c-28.2-4-101.9-9.3-186.4,24.9c-127.6,51.8-158.9,113.4-176.2,139
		c-26,40.8-39.4,63.6-47.6,71.6s-38.4,39.9-23.5,51s18.2,16,45.8,9s60.7-26.5,107-44c12-4.5,26.1-13,41-24c12.7-0.8,36.3-2.8,57.1-9
		c26.5-7.9,33.2-14,33.7-22.6c0.1-1.5,0-3.1-0.2-4.6c-1.1-8.1-5.6-11.9-15.3-10.8c-4.8,0.6-13.4,0.4-21.2,0
		c25.6-25.3,49.3-53.1,65-76.3c30.1-44.6,67.1-72.2,128-72.2c22,3.6,64.4,22,75.9,25.6s23.3,13.9,50.2,17.4
		c16.8,2.2,31.4-2.3,43.9-8.6C989.4,2639.1,991.7,2637.9,993.9,2636.5z"/>
	<path class="st3" d="M1250.1,1296.1c2.1-13.8,5.6-35.8,6.1-37.3c0.7-2.1,3.3-50.3,3.3-58.5c0-4.4-11.5-22.6-11.5-22.6
		s-14.8-12.3-27.1-19.8c-3-3.4-6.1-6.8-9.4-10l-0.6-0.3c-1.1-0.6-2.3-1.1-3.6-1.5c-2.8-1-28.8-2.1-28.8-2.1
		c17.8,21.1,58.6,57.1,54.7,127.5c-0.2,0.3-0.3,0.5-0.5,0.8c-7.9,16.5-55.2,96-213.7,124c-1.8-2.8-4.3-6.8-5.4-8.2
		c-1.7-2.3-39.7,5.3-45.6,7.8c-4.5,1.9-9.8,8.2-19.9,18.4c-32.9,12.2-60.3,28.4-81.6,45.5c-33.9,27.2-37.3,33.5-60.8,55.6
		s-16.5,15.1-31.4,39.1s1.2,26,13.9,29.9s84.5,0.8,139.8-7.4c19.9-2.8,39.6-7.3,58.7-13.3c16.8,10.2,42,18.9,53.9,22.7
		c16.1,5.1,78.3-10.3,77.5-12.8s0.8-4.6-6.1-9.2c-7.1-4.7-39.1-23.3-58.1-31.2c15.5-9.4,30.3-19.8,44.3-31.2
		c6.8-5.5,13.8-11.5,20.8-17.8c12.2-1.4,36.3-4.3,41.1-5.8c6.5-2,19.4-15.2,22.8-20.8s0.7-6.7-3.6-7.7c-3.3-0.8-11.6-1.4-23.2-1.6
		c42.5-43.8,79.3-91.5,85.9-113.5C1247.1,1319.9,1249.3,1307.1,1250.1,1296.1z"/>
	<path class="st3" d="M305.3,730.5c14.7-6.3,31.4-13.4,48.7-20.9h0.1c4.6-1.5,23.1-9.9,41.9-18.8c25.1-11.7,49.7-24.1,70.4-36.7
		c35.9-19.3,92.4-51.3,145.7-93.3c26.6-21,49.3-39.8,68.2-56.5c2.5,8.1,6,18.2,8.5,21.3c4.4,5.5,6.8,5.5,10.6,8s8.5,3.8,11.8,0.2
		s5-17,5.5-30.6c0.4-13.4-0.9-13.9-2.5-29.9c15.9-15.4,26.7-27.4,32.2-35.4c22.8-33,35.4-67.7,35.4-67.7c11-18.2,21.4-34.3,22.3-43
		s-4.8-23.5-24.3-20.9s-66.1,27.5-106.7,51.8c-9.3,5.6-22,14.3-36.3,25c-4.1-0.1-8.4-0.1-13.2,0.2c-17,1-17.4-0.4-30.9,2.1
		s-26.5,6.3-29.5,10.1s-1,8.2,2,11.5s3.4,5.7,9.5,9.2c2.5,1.5,8.8,2.9,15.3,4c-37.8,31.7-76.5,68.2-96.3,95.6
		c-36.9,50.8-60.1,92.5-81.1,118.6c-19.4,24.1-27.3,30.4-46.5,39.8h-0.2c-9.1,4.7-18.5,8.7-28.1,11.9c-13.7,4.4-30.2,12-52.5,20.7
		s-34.7,20.5-35.9,21.5s-4.5,4.8-5.4,8.5s-14.4,25.7-14,27.5S275.9,743,305.3,730.5z"/>
	<path class="st3" d="M1544.3,1942.2c12.9,9.6,27.3,20.4,42.6,31.6l0.1,0.1c3.7,3.2,20.2,15,37.4,26.7
		c22.8,15.8,45.9,30.8,67.1,42.4c34.7,21.3,90.8,54,153.9,78.9c31.5,12.4,59.2,22.5,83.1,30.6c-5.8,6.3-12.8,14.3-14.2,18.1
		c-2.5,6.6-1.3,8.6-1.6,13.2s1,9.2,5.7,10.3s17.2-4.2,29.2-10.7c11.8-6.4,11.5-7.8,24.6-17.2c21.3,6,37.1,9.3,46.8,10.1
		c40,3.1,76.3-3.5,76.3-3.5c21.2,0.4,40.4,1.2,48.4-2.4s17.9-15.9,5.8-31.5s-57.1-43.3-98.4-66.1c-9.6-5.3-23.5-11.8-39.9-18.8
		c-2-3.6-4.2-7.3-6.8-11.3c-9.5-14.2-8.5-15.2-17.4-25.6s-18.8-19.8-23.6-20.5s-7.7,3.2-9,7.6s-3.2,5.8-3.1,12.9
		c0,2.9,2,9.1,4.3,15.3c-46.4-16.7-97.5-31.7-131.1-35.1c-62.5-6.3-110.1-5.4-143.3-10.4c-30.6-4.6-40-8.3-57.8-20.1l-0.1-0.2
		c-8.6-5.5-16.8-11.6-24.5-18.3c-10.7-9.7-25.6-20.1-44.3-34.9s-35.2-19.7-36.7-20.2s-6.4-1.4-10.1-0.4s-29.4,0.5-30.8,1.8
		S1518.7,1923.2,1544.3,1942.2z"/>
	<path class="st3" d="M605.3,1176.1c-7.2-4.7,3.5-5.7-40.2,8.6c-37.6,12.3-84,52.2-115.6,77.4l0.1-0.2l-2.5-0.2
		c5.9-4.2,11.5-8.8,16.8-13.7c16.9-15.8,54.3-39.9,66.1-57.4s1.5-18.2,2.4-33.1s0.8-16.2-2.8-14.5s-2.3,6.2-17.8,26.3
		s-71.6,78.8-97.5,96.3l0.2,0.1c-25.2,13.1-88,51.4-136.6,127.9c-73.5,115.8-63.2,183.8-62.5,214.5c2.5,48.1,4.8,74.4,2.8,85.6
		s-8.1,54.6,10.4,54.9s24,2.5,42.4-19.2s33.9-56.6,61.3-97.5c7.1-10.6,13.6-25.6,19.3-43.2c9.8-8,27.8-23.2,41.1-40.3
		c16.9-21.8,18.9-30.5,14.3-37.8c-0.9-1.3-1.8-2.5-2.9-3.6c-5.5-5.9-11.5-6.4-18.6,0.1c-3.6,3.2-10.6,8-17.2,12.3
		c6.1-35.3,9.3-71.5,8.5-99.4c-1.4-53.5,12.7-97.4,62-132.5c19.9-9.7,64.9-19.4,76.3-23.2s26.9-2.2,50.7-14.9
		c14.9-7.9,24.1-20,30.6-32.3c0.7-4.4,7.7-17.1,9.5-21.9C612.7,1177.3,609.1,1178.6,605.3,1176.1z"/>
	<path class="st3" d="M937,2579.4c4.9-2.9,9.5-5.9,13.7-8.7c16.2-10.8,12.5-11.8,10.8-16.1c-3.2-8,6.2-2.6-37.9-16.4
		c-37.9-11.9-99.2-6.3-139.7-4.1l0.2-0.1l-1.9-1.6c7.3,0,14.5-0.5,21.7-1.4c23-3,67.7-1,87.5-8.3s11.9-14,21.3-25.7
		s10.1-12.8,6.2-13.5s-5.5,3.7-29.9,11.1s-104.5,22.7-135.9,21.9l0.1,0.2c-28.2-4-101.9-9.3-186.4,24.9
		c-127.6,51.8-158.9,113.4-176.2,139c-26,40.8-39.4,63.6-47.6,71.6s-38.4,39.9-23.5,51s18.2,16,45.8,9s60.7-26.5,107-44
		c12-4.5,26.1-13,41-24c12.7-0.8,36.2-2.8,57.1-9c26.5-7.9,33.2-14,33.7-22.6c0.1-1.5,0-3.1-0.2-4.6c-1.1-8.1-5.6-11.9-15.3-10.8
		c-4.8,0.6-13.4,0.4-21.2,0c25.6-25.3,49.3-53.1,65-76.3c30.1-44.6,67.1-72.2,128-72.2c22,3.6,64.4,22,75.9,25.6
		s23.3,13.9,50.2,17.4c16.8,2.2,31.3-2.3,43.9-8.6C932.6,2582.1,934.8,2580.8,937,2579.4z"/>
	<path class="st4" d="M375.3,2757.2c-3.1,0.3-5.8-2-6.1-5.1c-0.1-1.4,0.3-2.8,1.1-3.9c19-24.9,11.8-43.1,35.7-67
		c27-26.9-6.5-27.8,46.5-53.5s51.4-39.1,81.2-50.3c29.8-11.3,73.7-47.8,80.9-30.1s-31.5,23.7-40,54.4s11.4,43.4-9.8,53.2
		s-62.6,28.3-72.1,33.1s-22.6,58.2-58,62.9C412.5,2754,389.5,2756.1,375.3,2757.2z"/>
	<path class="st4" d="M1015.9,1455.4c21.8-16.7,71.2-47.6,80.4-68.4s-71.7,15-91.8,24.8s-51.5,9.5-80.5,21.3l-18.2,1.8l-15.5,14.7
		c-6,0.5-11.2,2.1-15.5,5c-3.2,2.2-6.3,4.4-9.5,6.5c-32.5,26.3-36.2,32.7-59.4,54.5l-0.3,0.3c-6.8,19.7,7.2,34.6,7.2,34.6
		c24.5,7,89,3.8,117-12.4s115-29.7,80.3-46.4c-10.4-5-24.2-12.1-39.2-19C991.7,1469,1000.6,1467.1,1015.9,1455.4z"/>
	<path class="st4" d="M1230.6,1333.8c0,0-2.4-20.4-7.3-21.7s-14,14.4-14,14.4s-31.7,22.7-45.6,41.2s-12.1,28.4-21.8,51.2
		s-35.3,29.1-49.5,44.5s-5.8,19.5-5.8,19.5s66.3-44.6,81.5-55.6S1224.3,1355.3,1230.6,1333.8z"/>
	<path class="st4" d="M577.3,1191.8c-16.7,6.9-96.5,48.8-120.9,88.1l3.6-0.3c21.1-6.7,46.8-12.5,55-15.1c11.1-3.6,26-2.3,48.7-13.8
		c27.4-18.5,32.1-47,33.9-51.8C603.8,1182.6,583.8,1189.1,577.3,1191.8z"/>
	<path class="st4" d="M303.6,1482.3c5.8,2.5,18.6-29,18.6-29c2.6-38.6-8.1-32.6,20.9-70.3s6.9-39.2,6.9-39.2s-57.4,21.7-62,53
		s-68.5,102-60.4,130.4c2,7,7.2,7.7,14,4.8c-10.7,21.5-19.4,51.1-24.7,72c-0.6,0.9-1.1,1.8-1.7,2.7c0,0.5,0,1,0,1.5
		c2.5,48.1,4.8,74.4,2.8,85.6c-0.1,0.6-0.2,1.3-0.4,2.1c1.3,12.5,3.5,17.2,15.7,28.7c17.4,16.3,12.3-14.7,47.3-56.5
		c23.9-28.5,20.5-47.3,3.8-69.8c9.3,5.1,19,10.4,26.8,11l12.4-62.6c0,0-29.6-19.4-40.3-34.4c-2.2-2.8-3.5-6.2-3.9-9.7
		C291.6,1491.2,301.5,1481.3,303.6,1482.3z"/>
	<path class="st4" d="M706.7,2548.3c-26.9-21.5-56.3,15.2-64.6,15.5s-39.1,32.3-47.7,54l32.3,7c0,0,2.1-1.4,5.3-3.6l0.3-0.4
		c21.3-31.6,46.2-54.6,80.6-65.4C711.3,2552.6,709.2,2550.2,706.7,2548.3z"/>
	<path class="st4" d="M750.8,342.5c-13.3-3.1-27.3-1.1-39.2,5.7c-19.6,11.4-49,16.6-64.2,34.9c-8.6,10.4-8.7,21.7-10.8,22
		c-4.8,0.8-14.8,24.3-14.8,24.3s-12.7,20.1-31.9,17.2c-10.3-1.6-11.5,7.2-11.6,19.3c-6.8,0.4-13.6,1.7-20.1,3.9
		c-17.2,5.5-15.9,20.7-30.1,35.5c-14.1,14.9,5.2,11.8,14,12.1c6.6,0.2,19.9-2.6,31.3-12.4c-4.1,18.7,13.5,20.2,25.4,18.3
		c12.9-2,70.3-20.5,85.6-42.2c3-4.3,6.3-9,9.6-13.9c0.6-0.2,1.2-0.3,1.9-0.6c31.1-11.5,48.9-48.4,57.4-67.4S750,350.9,750.8,342.5z"
		/>
	<path class="st4" d="M526.7,613.8c26.1-11.8,62.8-33.6,61.2-47.1s-29-6.4-30.5-19.3l-8.7-3c0,0-17.8,8.9-26.2,18.5
		s-10.4,31.3-22.8,29.5s-13.1,18-20.8,38.5S500.6,625.7,526.7,613.8z"/>
	<path class="st4" d="M434.4,670.8c0,0,6-48.8,6.2-76.2c-10.2,15.7-19.3,29.1-28,40c-12.4,15.3-20.1,23.5-29,29.8l-1,1.5l4.6,13.3
		l-0.9,10L434.4,670.8z"/>
	<path class="st4" d="M2103.8,2131.9c-4-13.1-12.8-24.1-24.6-31c-19.7-11.2-39-34-62.5-37.9c-13.3-2.2-23.1,3.4-24.5,1.8
		c-3.1-3.8-28.5-0.6-28.5-0.6s-23.8-0.9-30.9-18.9c-3.8-9.7-12-6.3-22.5-0.3c-3.8-5.7-8.3-10.9-13.5-15.4
		c-13.4-12.2-25.9-3.4-45.8-8.1s-7.6,10.4-3.4,18.2c3.2,5.8,12.2,15.9,26.5,20.8c-18.2,5.9-10.6,21.8-3,31.1
		c8.2,10.1,53.2,50.5,79.5,52.7c5.2,0.4,11,0.9,16.8,1.3c0.4,0.4,0.9,0.9,1.4,1.3c25.7,21.1,66.5,17.9,87.1,15.7
		C2076.7,2160.4,2096.2,2135.4,2103.8,2131.9z"/>
	<path class="st4" d="M1756.6,2074.8c23.4,16.6,60.6,37.3,71.5,29.2s-9.1-28.3,1.3-36.1l-1.8-9.1c0,0-16.6-10.9-29.1-13.3
		s-32.3,6.8-36.9-4.9s-22.1-2.2-43.7,1.4S1733.2,2058.2,1756.6,2074.8z"/>
	<path class="st4" d="M1660.9,2023.7c0,0,45.1-19.4,69-33c-18.7-1-34.9-2-48.6-4.1c-19.5-3-30.4-5.5-40.3-10.1l-1.8-0.2l-9.2,10.7
		l-9.1,4.3L1660.9,2023.7z"/>
</g>
</svg>
