<?xml version="1.0" encoding="utf-8"?>
<!-- Generator: Adobe Illustrator 25.2.3, SVG Export Plug-In . SVG Version: 6.00 Build 0)  -->
<svg version="1.1" id="蝶のシルエット" xmlns="http://www.w3.org/2000/svg" xmlns:xlink="http://www.w3.org/1999/xlink"
	 x="0px" y="0px" viewBox="0 0 680 390" style="enable-background:new 0 0 680 390;" xml:space="preserve">
<style type="text/css">
	.st0{opacity:0.2;fill:#FFFFFF;}
</style>
<path class="st0" d="M440.3,174.3c7.1-6.8,13.6-14.1,18.4-22.8c2.5-4.5,4.5-9.1,5-14.4c0.2-2.6-0.7-3.5-3.3-2.8
	c-4.3,1-8.4,2.4-12.5,4c-4.4,1.9-4.4,1.9-4.5-3.1c-0.2-4.5-1-9-2.3-13.4c-1-3.4-2.8-4.8-6.5-3.7c-9.4,2.8-18,7.1-24.9,14.1
	c-8.7,8.8-8.9,13.4-4.2,22.1c0.1,0.2-0.2,0.5-0.4,1c-3.7-2.7-7.7-4.5-12.2-3.2c-7.1,1.9-12.7,7.2-15,14.1c-2.4,6.9,0.1,13.5,6,17.5
	c3,2.1,6.5,2.6,10,2.6c6.4,0,12.9,0,19.8,0c-5,3.5-10.5,5.3-15.1,9.4c2.5,1,3.9-0.1,5.2-0.6c4.2-1.8,8.1-4.5,12.4-5.5
	c8.1-1.9,16.6-2.8,22-10.3l0,0c2.5-0.8,5.1-0.9,7.6-0.4c4.4,0.7,8.8,0.9,13.2,1.4c0.7,0.8,1.8,1.1,2.7,0.6l0,0
	c1.7-1.9,0.5-2.5-1.3-2.4c-2.5,0.1-4.9-0.8-7.3-0.8c-4.7,0-9.4-2.3-14.1-0.2l0,0C436.9,175.4,439.6,175,440.3,174.3z"/>
<path class="st0" d="M441.4,318.1c-2.3-2.8-5.1-5.2-8.4-6.9c-8.8-4.3-18.7-5.9-28.4-4.6c-1,0.1-2.7,0.8-3.1-0.6s1.3-1.7,2-2.5
	c5.2-0.8,10.4-1.3,15.6-1.5c1,0.6,2.1,1.1,3.2,0.1c0.4-0.4,0.6-0.9,0.2-1.3c-0.7-0.8-1.7-0.4-2.5-0.2l0,0c-5.8-0.5-11.6,0-17.2,1.5
	l0,0l-0.7-0.8c-0.1,0-0.2-0.1-0.3-0.3l0.3,0.3c0.5-1.2,0.9-2.4,1.4-3.5c2.2-5.3,4.2-10.7,4.1-16.6c0.4-1,1.5-2.3,0.2-2.9
	s-1.6,0.9-1.7,2.1l0,0c0,7-2.2,13.4-5.5,19.5l0,0c-1,0.3-1.6,1.8-2.7,1.1s-0.3-1.9,0-2.8c2.1-7.1,3.3-14.4,3.6-21.8
	c0.3-12.5-0.8-24.6-6.2-36.1c-1.4-3-3.2-3.6-6.1-2.7c-11.1,3.7-20,10.3-26,20.5c-5.4,9.3-4.6,16.3,2.5,24.5l-1,1l0,0
	c-2.5-1.1-5.1-2-7.8-2.4c-9.5-1.9-20.6,10.4-21,18.2s1,14.4,8.5,18.9c5.6,3.3,11.3,3.4,17.3,2.3c6.4-1.2,12.5-3.9,19.9-4.5
	c-4.1,3.8-7.6,7-11.1,10.3c-0.7,0.7-2.6,1.2-1.7,2.6s2.1-0.2,3-0.7c1.1-0.7,2.2-1.4,3.2-2.3l9.6-7.2c0.5,1.9-0.2,3-0.6,4.2
	c-2.1,6.3-5.9,11.9-7.3,18.4c-2.3,10.2,3.9,18.2,15.5,15.7c10-2.2,15.4-9.4,15.3-19.8c0-0.3,0.3-0.5,0.5-0.8c5,5.8,8.6,6.6,15.4,3.1
	c7.7-4,13.2-10.3,18.1-17.3C442.6,320.8,442.5,319.1,441.4,318.1L441.4,318.1z"/>
<path class="st0" d="M310,237.3c-4.3-3.8-9.2-6.8-13.9-10c-4.2-2.7-7.2-7-8.3-11.8c-1.3-5.7-2.8-11.4-4.5-16.9
	c-4.9-15.8-11.4-22.4-29.4-24c-2.8-0.2-5.6,0.7-9.4-0.6c2.2-0.4,3.3-0.6,4.4-0.9c5.1-1.5,10.7-1.8,14.7-5.8
	c7.4-7.2,9.2-16.3,7.6-26.2c-1.3-7.7-3.6-15.2-4.1-22.9c-1.2-17-0.6-34-2.6-50.9c-0.7-6.1-1-12.5-6.2-17.1h-1.6
	c-0.5,0.4-1,0.8-1.6,1.1c-8.6,2.9-15.5,8.6-21.7,14.8c-12.1,12.1-19.7,27-25.9,42.7c-7.6,19.2-11.8,39.2-14.9,59.5
	c-0.7,4.6-0.7,9.1,2.1,13.3c2.6,3.9,2.4,8.6,3,13.1c-2.6,0-3.5-1.6-3.7-3.5c-0.5-4.6-3.6-8.3-3.1-13.5c0.5-4.4-3.1-8.4-6.4-11.7
	c-0.3-1.8-0.6-3.6-0.7-5.4c-0.1-10.8-1.4-21.5-0.8-32.3c0.1-2.3-1.1-3.9-2.3-5.6c-0.7-1-1.6-1.8-3-1s-1,1.9-0.5,3.1
	c0.8,2.1,2,3.9,3.6,5.5c1,0.8,1.5,2.1,1.3,3.4c-0.4,11,0.5,22.1,0.9,33.1l0,0c-0.7,1.1-1,2.4-0.8,3.7c0.1,0.9,0.6,1.8-0.5,2.3
	c-0.9,0.4-1.9,0.1-2.4-0.6c-0.8-1-2.1-1.6-3.4-1.4c-0.5-0.1-1-0.2-1.4-0.5c-8.9-7.7-18.8-14-28.3-20.7c0.4-3.1-1.1-5.4-3-7.6
	c-0.6-0.6-1.1-1.1-1.9-0.8c-0.7,0.3-1.2,1-1.2,1.8c-0.1,2.5,3.5,6.8,6.1,7.4l0,0c0.5,0.7,1.1,1.4,1.8,2c5.6,3.6,10.9,7.4,16.1,11.5
	c3.6,2.7,7.4,5.1,11,7.7l0,0c-0.3,3.1,0.7,6.2,2.7,8.6c3.7,4.3,7,9.1,9.8,14.1v0.7l0,0c-3.1-0.9-4.4-3.4-5.7-6s-2.4-5.5-5.3-7
	c-14-7.5-28.7-13.5-43.8-18.1c-18.1-5.5-36.5-9.6-55.8-8.5c-11,0.6-21.5,2.7-31.3,7.6c-9.3,4.6-12.5,6.7-2.1,16.5
	c7.9,7.5,16.9,13.8,25.8,20.1c10.7,7.6,21.7,14.8,30.6,24.6c2.9,3.3,6.2,6.3,9.7,9c7.7,5.6,21.6,8.6,30-0.1c2.1-2,4.4-3.9,6.7-5.6
	c-1.4,2.1-2.6,4.4-3.7,6.6c-5.6,10.3-7.7,20.6-0.6,31.3c3.7,5.6,8.3,10.3,12.7,15.3c3.2,3.6,6.9,6.8,8,11.8
	c0.8,3.5,1.1,7.1,0.7,10.7c-0.4,5.1,0.1,10.2,1.5,15.1c0.3,1.1,0.5,2.5,2,2.6c1.7,0.1,1.9-1.5,2.2-2.8c0.8-2.6,0.5-5.1,0.2-7.7
	c-0.5-5.3-1.2-10.6-1.2-15.9c-0.1-5.5,2.6-8.3,7.8-9.6c3.9-1,7.9-1.4,11.9-1.3c3.9,0.1,5.4-2.2,5.9-5.4c0.4-1.8,0.4-3.6,0-5.4
	c-1.1-3.3,0.4-5.1,2.6-7c4.5-4,5.9-9.1,3.8-14.5c-3.6-9.6-5.1-19.6-6-29.6c-0.4-4.2-1.5-8.4-0.8-13.7c7.8,9,12.6,19.3,20.4,27.3
	c-4.7-12.5-9.8-24.8-14.4-38.1c2.3,2.1,3.9,3.9,5.7,5.3c11.5,8.9,23.1,17.7,31.9,29.6c3.1,4.2,7.8,6.4,13.5,4.6
	c2.9-0.9,5.8-1.4,8,1.8c0.4,0.6,1.3,0.9,1.9,1.3c5.7,3.8,7.1,3.6,11-1.8c0.7-0.9,1.4-1.9,2.1-2.8c7.3-9.8,10.7-10.1,20.9-3.1
	c4.4,3,8,7.1,12.7,9.7c1.8,1,4.2,3.3,5.8,0.9C314.1,240.7,311.7,238.8,310,237.3z"/>
<path class="st0" d="M635.7,154.5c-2.5-10.7-12.3-24-27.6-21.3c-2.1,0.2-4.1,0.2-6.2,0c13.3-8.7,16.4-15.5,13-28.4
	c-0.6-2.3-1.5-4.5-2.5-6.6c-5.3-11-13.5-19.5-23.8-26c-4.5-2.9-6-2.5-9.5,1.4c-12.5,14.2-18.7,31.1-21.3,49.5
	c-0.9,6.2-0.7,12.4-0.7,18.6c0,0.8,0.3,1.7-0.7,2.2s-1.4-0.4-2-1s-1.1-0.8-1.7-1.2l-0.5-1.8c-0.3-1.4-0.8-4.1-1.1-6.6v-13.1
	c0.5-1,1-2,1.4-3c0.5-1,0.3-2.3-0.5-3.1c-0.3-0.5-0.9-0.6-1.4-0.3c0,0,0,0-0.1,0c-0.9,0.7-1.3,1.9-0.8,3c0.2,0.8,0.4,1.6,0.5,2.4
	l0,0c-0.9,3.5-1.2,7.1-0.9,10.7v0.1c0.2,3.4,0.4,7.4,1.1,10.1c0.1,0.4,0.2,0.7,0.4,1c0.2,0.4,0.2,0.9,0.3,1.4l-2.4,1.6l0,0
	c-0.8-1-2.1-1.6-3.4-1.6l0,0c-1.6-1.8-3.9-1.6-5.9-2.4l0,0c-3.5-0.3-6.3-2.8-9.9-2.5l0,0l-2.5-1.3c-1.1-0.6-2.3-0.8-2.7,0.6
	c-0.2,1,0.6,2,1.6,2.2c0.1,0,0.2,0,0.3,0c0.8-0.1,1.6-0.3,2.3-0.6l0,0c2.8,1.3,5.9,2.1,9,2.4c2.2,1.1,4.6,1.9,7,2.4
	c0.9,1,2.2,1.2,3.3,1.6l0,0c0.3,0.5,0.6,0.9,0.9,1.4c0.5,1,2.4,1.6,1.2,3c-0.9,1-2.1-0.1-3-0.4c-4.4-1.1-8.7-2.8-13.2-3.6
	c-12.6-2.3-25-2.3-36.7,3.9c-3.7,1.9-4.2,4.7-2.9,7.9c3.8,8.8,8.5,17.1,16.1,23.3c8.4,6.9,13.7,8.1,21.6,1.3c0,0,0.2,0.1,0.6,0.2
	c-2.1,4.7-3.8,9.6-1.3,14.6c3.5,7.4,8.9,13.1,16.7,15.7c3.8,1.3,8.3,2.5,11.8,1.1c8.3-3.5,11.5-10.1,10.3-19.2
	c-0.7-5.6-2-11.1-2.8-16.7c-0.5-2.9-1.2-5.8,0.1-9.1c0.6,0.7,1,1.1,1.3,1.5c4,4.7,8,9.5,12.2,14.1c0.9,1,2.1,2.6,3.4,1.6
	c1.7-1.3-0.4-2.4-1-3.4c-2.9-4.4-5.9-8.6-8.9-13c0.4-0.7,1.2-1.1,2-1.1l0,0c7,3.4,13.9,6.9,20.8,10.2s14.3,4.5,21.8,2.2
	c5.7-1.8,11.1-3.7,13.9-10.2C635,165.1,637.1,160.3,635.7,154.5z"/>
</svg>
