<svg version="1.1" id="" xmlns="http://www.w3.org/2000/svg" xmlns:xlink="http://www.w3.org/1999/xlink" x="0px"
	 y="0px" viewBox="0 0 24 24" style="enable-background:new 0 0 24 24;" xml:space="preserve">
<style type="text/css">
	.st0{fill:#3ea9ba;stroke:#3ea9ba;stroke-width:1.5;stroke-linecap:round;stroke-linejoin:round;}
	.st1{fill:none;stroke:#3ea9ba;stroke-width:1.5;stroke-linecap:round;stroke-linejoin:round;}
</style>
<path class="st0" d="M17,12.5c0.3,0,0.5-0.2,0.5-0.5s-0.2-0.5-0.5-0.5s-0.5,0.2-0.5,0.5S16.7,12.5,17,12.5z"/>
<path class="st0" d="M12,12.5c0.3,0,0.5-0.2,0.5-0.5s-0.2-0.5-0.5-0.5s-0.5,0.2-0.5,0.5S11.7,12.5,12,12.5z"/>
<path class="st0" d="M7,12.5c0.3,0,0.5-0.2,0.5-0.5S7.3,11.5,7,11.5S6.5,11.7,6.5,12S6.7,12.5,7,12.5z"/>
<path class="st1" d="M12,22c5.5,0,10-4.5,10-10c0-5.5-4.5-10-10-10C6.5,2,2,6.5,2,12c0,1.8,0.5,3.5,1.3,5l-0.8,4.5L7,20.7
	C8.5,21.5,10.2,22,12,22z"/>
</svg>
