<?xml version="1.0" encoding="utf-8"?>
<!-- Generator: Adobe Illustrator 25.2.3, SVG Export Plug-In . SVG Version: 6.00 Build 0)  -->
<svg version="1.1" id="" xmlns="http://www.w3.org/2000/svg" xmlns:xlink="http://www.w3.org/1999/xlink" x="0px"
	 y="0px" viewBox="0 0 24 24" style="enable-background:new 0 0 24 24;" xml:space="preserve">
<style type="text/css">
	.st0{fill:none;stroke:#fff;stroke-width:1.2;stroke-linecap:round;stroke-linejoin:round;}
	.st1{fill:#fff;stroke:#fff;stroke-width:1.2;stroke-linecap:round;stroke-linejoin:round;}
</style>
<path class="st0" d="M12,22C6.5,22,2,17.5,2,12S6.5,2,12,2s10,4.5,10,10S17.5,22,12,22z"/>
<path class="st0" d="M16.5,14.5c0,0-1.5,2-4.5,2s-4.5-2-4.5-2"/>
<path class="st1" d="M15.5,9C15.2,9,15,8.8,15,8.5S15.2,8,15.5,8S16,8.2,16,8.5S15.8,9,15.5,9z"/>
<path class="st1" d="M8.5,9C8.2,9,8,8.8,8,8.5S8.2,8,8.5,8S9,8.2,9,8.5S8.8,9,8.5,9z"/>
</svg>
