<?xml version="1.0" encoding="utf-8"?>
<!-- Generator: Adobe Illustrator 25.2.3, SVG Export Plug-In . SVG Version: 6.00 Build 0)  -->
<svg version="1.1" id="レイヤー_1" xmlns="http://www.w3.org/2000/svg" xmlns:xlink="http://www.w3.org/1999/xlink" x="0px"
	 y="0px" viewBox="0 0 40 28" style="enable-background:new 0 0 40 28;" xml:space="preserve">
<style type="text/css">
	.st0{fill:none;stroke:#3ea9ba;stroke-width:1.2;stroke-linecap:round;stroke-linejoin:round;}
	.st1{fill:#3ea9ba;stroke:#3ea9ba;stroke-width:1.2;stroke-linecap:round;stroke-linejoin:round;}
</style>
<path class="st0" d="M20,26.1c-5.5,0-10-4.5-10-10s4.5-10,10-10s10,4.5,10,10S25.5,26.1,20,26.1z"/>
<path class="st0" d="M24.5,18.6c0,0-1.5,2-4.5,2s-4.5-2-4.5-2"/>
<path class="st1" d="M23.5,13.1c-0.3,0-0.5-0.2-0.5-0.5s0.2-0.5,0.5-0.5s0.5,0.2,0.5,0.5S23.8,13.1,23.5,13.1z"/>
<path class="st1" d="M16.5,13.1c-0.3,0-0.5-0.2-0.5-0.5s0.2-0.5,0.5-0.5s0.5,0.2,0.5,0.5S16.8,13.1,16.5,13.1z"/>
</svg>
