<svg id="ver02" xmlns="http://www.w3.org/2000/svg" xmlns:xlink="http://www.w3.org/1999/xlink" viewBox="0 0 247 247"><defs><style>.cls-1{fill:none;}.cls-2{fill:#acd3cd;}.cls-3{fill:#d0af9f;}.cls-4{fill:#fff;}.cls-5{fill:#ad7d5f;}.cls-6{clip-path:url(#clip-path);}.cls-7{fill:#8c5c43;}</style><clipPath id="clip-path"><path id="SVGID" class="cls-1" d="M142.19,88.82C139.41,82,133,82.18,124.68,77.63a19,19,0,0,1-4.74-3.25A43.53,43.53,0,0,1,111,78.57c-24.08,8.26-45,26.86-46.8,60.15a64.77,64.77,0,0,0,.12,9.11,4,4,0,0,1-.12,1.37,134.9,134.9,0,0,0-3.93,19.67c-.34,2.87-.6,5.87-.7,8.92a69.27,69.27,0,0,0,1,15.45c.18.93.38,1.86.61,2.77A51.32,51.32,0,0,0,63,201.7a45,45,0,0,0,5.3,10c5.69.4,11.67-4.22,14.56-9.67a40.38,40.38,0,0,1-3.35-5.78c-2.94-6.19-4-10.85-3.71-16.33a3.79,3.79,0,0,1,.91-2.27c-.43-5.06,1-9.21,1.91-9.79,1.52-1,6.26-5.88,15.36-12.7s13.72-23.71,13.72-23.71,8.47,2.59,15.3,2.84,9.73-4.11,15.55-8.15S145,95.64,142.19,88.82Z"/></clipPath></defs><circle class="cls-2" cx="123.5" cy="123.5" r="123.5"/><path class="cls-3" d="M182.37,33.64c-4.49,2.6-9.91,6-11.19,7.83-1.92,2.77,2.55,8.14,7.48,11.05,0-.71,0-1.41,0-2.1a3.81,3.81,0,0,1,.29-1.52l4.46-10.75.18-.37c.35-.62,1.58-3,.6-4.21C184,33.35,183.35,33.39,182.37,33.64Z"/><path class="cls-3" d="M141.66,38.56c.15-1.32-2.22-6.39-5.73-11a3.61,3.61,0,0,0-3.76.36,3.66,3.66,0,0,0-1.27,2.71c-.07,2.16-.27,8-.38,14.29C135.85,43.22,141.52,39.74,141.66,38.56Z"/><path class="cls-4" d="M68.34,211.74c7.11,10.1,16.73,14.27,22.07,13.81,7.56-.66,3-4.76,2.69-10.11-.3-4.34-5.27-6.3-10.2-13.37C80,207.52,74,212.14,68.34,211.74Z"/><path class="cls-4" d="M158.31,94.7c-1.49.25-2.62-5.85-6.92-10.91s-4.2-6.67-6.48-6.67-7.58.25-13.91-5.06a30.79,30.79,0,0,1-4.8-5c-.18.64-.36,1.26-.52,1.91a4,4,0,0,1-1.25,2.08,37.81,37.81,0,0,1-4.49,3.3,19,19,0,0,0,4.74,3.25C133,82.18,139.41,82,142.19,88.82s2.22,33.31-3.6,37.36-8.72,8.41-15.55,8.15-15.3-2.84-15.3-2.84S103.12,148.37,94,155.2s-13.84,11.69-15.36,12.7c-.86.58-2.34,4.73-1.91,9.79a3.9,3.9,0,0,1,4.67-.95,18.67,18.67,0,0,0,2.44,1c6.68,3.17,42,1.91,46.14,1.25,1.06-.17,2.06-2.3,2.94-5.45a3.85,3.85,0,0,1,7.41-.06l.81,2.81a3.83,3.83,0,0,0,3.78,2.79l2.56-.09,12,.05c2.46,0,3.46-2.4,2.93-4.81-1.43-6.43-3-17.81-3.88-24.65-.57-4.65-1.52-12.64-2.26-20.45l.38-.29c16.81-13.09,17.72-32.37,16.81-48l-.38-.3c3-5.84,4.7-13.86,5.3-22L168.24,75.92S166.09,93.37,158.31,94.7Z"/><path class="cls-5" d="M172.42,41.3c1.28-1.85,5.46-5.06,10-7.66-3.09.77-9.53,3.57-15.39,6.77a3.8,3.8,0,0,1-3.11.24c-5.26-1.89-10.57-3.54-13.32-3.64a4.35,4.35,0,0,0-1.24.24A3.81,3.81,0,0,1,145.24,36l-.68-.84c-3.81-4.71-7.82-7.09-9.85-7.84A17.57,17.57,0,0,1,138,38.87c-.14,1.18-2.12,4.35-7.45,6.06-.06,3.38-.1,6.92-.07,10.15a3.87,3.87,0,0,1-.4,1.71,57.61,57.61,0,0,0-3.85,10.3,30.79,30.79,0,0,0,4.8,5c6.33,5.31,11.64,5.06,13.91,5.06s2.18,1.61,6.48,6.67S156.82,95,158.31,94.7c7.78-1.33,9.93-18.78,9.93-18.78l10.18-17.33c.15-2,.23-4.06.24-6.07C173.73,49.61,170.5,44.07,172.42,41.3Z"/><path class="cls-5" d="M142.19,88.82C139.41,82,133,82.18,124.68,77.63a19,19,0,0,1-4.74-3.25A43.53,43.53,0,0,1,111,78.57c-24.08,8.26-45,26.86-46.8,60.15a64.77,64.77,0,0,0,.12,9.11,4,4,0,0,1-.12,1.37,134.9,134.9,0,0,0-3.93,19.67c-.34,2.87-.6,5.87-.7,8.92a69.27,69.27,0,0,0,1,15.45c.18.93.38,1.86.61,2.77A51.32,51.32,0,0,0,63,201.7a45,45,0,0,0,5.3,10c5.69.4,11.67-4.22,14.56-9.67a40.38,40.38,0,0,1-3.35-5.78c-2.94-6.19-4-10.85-3.71-16.33a3.79,3.79,0,0,1,.91-2.27c-.43-5.06,1-9.21,1.91-9.79,1.52-1,6.26-5.88,15.36-12.7s13.72-23.71,13.72-23.71,8.47,2.59,15.3,2.84,9.73-4.11,15.55-8.15S145,95.64,142.19,88.82Z"/><path class="cls-4" d="M152.21,165.84s8.54-.27,9.25,1.47c1.44,3.5,3.88,8.7,4.72,11.22-1.91.6-14.93.54-14.93.54Z"/><g class="cls-6"><path class="cls-7" d="M115.61,95.17a2.17,2.17,0,0,1-1.1-.2c-.15-.07-14.76-6.69-24.85-7.77a3.1,3.1,0,0,1-2.44-3.39A2.72,2.72,0,0,1,90,81c10.82,1.16,25.64,7.88,26.27,8.17a3.41,3.41,0,0,1,1.59,4A2.61,2.61,0,0,1,115.61,95.17Z"/><path class="cls-7" d="M95.75,119.15a3.41,3.41,0,0,0-1.59-4c-.62-.29-15.45-7-26.27-8.17a2.72,2.72,0,0,0-2.76,2.84,3.1,3.1,0,0,0,2.44,3.39c10.09,1.08,24.7,7.7,24.85,7.77a2.19,2.19,0,0,0,1.11.2A2.61,2.61,0,0,0,95.75,119.15Z"/><path class="cls-7" d="M107.19,105.63a3.9,3.9,0,0,0-1.83-4.64c-.72-.33-17.77-8.07-30.21-9.4-1.66-.17-3.09,1.28-3.19,3.26a3.56,3.56,0,0,0,2.81,3.9c11.61,1.25,28.42,8.87,28.59,9a2.6,2.6,0,0,0,1.27.23A3,3,0,0,0,107.19,105.63Z"/><path class="cls-7" d="M69.34,166.08c-.22-.33-6-1.52-9.65-2.82-.34,2.87-.59,5.87-.7,8.92a86.54,86.54,0,0,0,9.34-.66C70.48,171,69.59,166.46,69.34,166.08Z"/><path class="cls-7" d="M67.66,184.24c-.3-.21-5.26.58-9.08.79.08.95.18,1.89.31,2.82a52.62,52.62,0,0,0,1.17,5.85,85.22,85.22,0,0,0,8.61-4C70.5,188.43,68,184.5,67.66,184.24Z"/></g></svg>