<?xml version="1.0" encoding="utf-8"?>
<svg version="1.1" id="" xmlns="http://www.w3.org/2000/svg" xmlns:xlink="http://www.w3.org/1999/xlink" x="0px"
	 y="0px" viewBox="0 0 24 24" style="enable-background:new 0 0 24 24;" xml:space="preserve">
<style type="text/css">
	.st0{fill:none;stroke:#3ea9ba;stroke-width:2.0;stroke-linecap:round;stroke-linejoin:round;}
</style>
<path class="st0" d="M11.5,2.7c0.2-0.5,0.9-0.5,1.1,0l2.9,6.1c0.1,0.1,0.2,0.2,0.3,0.3l6.1,2.9c0.5,0.2,0.5,0.9,0,1.1l-6.1,2.9
	c-0.1,0.1-0.2,0.2-0.3,0.3l-2.9,6.1c-0.2,0.5-0.9,0.5-1.1,0l-2.9-6.1c-0.1-0.1-0.2-0.2-0.3-0.3L2.2,13c-0.5-0.2-0.5-0.9,0-1.1
	l6.1-2.9C8.4,9,8.5,8.9,8.6,8.8L11.5,2.7z"/>
</svg>
