<?xml version="1.0" encoding="utf-8"?>
<!-- Generator: Adobe Illustrator 25.2.3, SVG Export Plug-In . SVG Version: 6.00 Build 0)  -->
<svg version="1.1" id="logo" xmlns="http://www.w3.org/2000/svg" xmlns:xlink="http://www.w3.org/1999/xlink" x="0px" y="0px"
	 viewBox="0 0 240 30" style="enable-background:new 0 0 240 30;" xml:space="preserve">
<style type="text/css">
	.st0{fill:#444444;}
</style>
<path class="st0" d="M17.9,1.5c-0.1-0.1-0.3-0.1-0.4-0.2c-0.1,0-0.3-0.1-0.4-0.1c-0.2,0-0.3,0-0.5,0.1c-0.2,0.1-0.3,0.2-0.4,0.3
	C16,1.8,15.9,1.9,15.8,2c-0.1,0.1-0.1,0.2-0.1,0.3c0,0.6,0,1.3-0.1,1.9c0,0.7-0.1,1.3-0.1,1.9s-0.1,1.2-0.2,1.8S15.1,9,15,9.4
	s-0.2,0.8-0.2,1.1c0,0.2-0.1,0.4-0.2,0.6c-0.2,0.2-0.5,0.4-0.8,0.4c-0.5,0.1-1.1,0.2-1.6,0.3c-0.6,0.1-1.3,0.2-2,0.2
	S8.7,12.2,8,12.2l-1.8,0.1h-1H4.8c-0.2,0-0.3,0-0.5-0.1c-0.1,0-0.2-0.1-0.4-0.1c-0.1-0.1-0.2-0.2-0.2-0.3c0-0.6,0-1.3,0.1-1.9
	c0.1-0.7,0.3-1.3,0.4-2s0.3-1.3,0.4-2C4.9,5.3,4.9,4.6,4.8,4c0-0.3-0.1-0.6-0.3-0.8C4.2,3,3.9,2.8,3.6,2.8c-0.1,0-0.3,0-0.4,0
	C3,2.8,2.9,2.9,2.8,3C2.7,3.1,2.6,3.2,2.6,3.3C2.5,3.4,2.5,3.5,2.5,3.6C2.4,4.5,2.3,5.4,2.2,6.4S2,8.3,1.9,9.2S1.6,11.1,1.5,12
	s-0.2,1.8-0.4,2.6s-0.2,1.6-0.4,2.3s-0.2,1.4-0.4,1.9c0,0.2-0.1,0.3-0.1,0.5L0.2,20c0,0.2-0.1,0.4-0.1,0.6c0,0.2,0,0.4,0,0.6
	c0,0.2,0.1,0.4,0.2,0.5c0.1,0.2,0.2,0.4,0.4,0.5c0.1,0.2,0.3,0.3,0.5,0.4c0.1,0.1,0.3,0.2,0.4,0.2c0.3,0,0.5-0.1,0.7-0.4
	c0.2-0.3,0.3-0.6,0.4-0.9c0.1-0.4,0.1-0.9,0.1-1.3c0-0.5,0-1,0-1.5c0-0.2,0-0.4,0-0.7s0.1-0.6,0.1-0.9s0.1-0.6,0.1-0.9
	S3,15.7,3,15.5c0-0.2,0.1-0.4,0.2-0.6c0-0.1,0.1-0.2,0.2-0.3c0.2,0,0.3-0.1,0.5-0.1c0.3,0,0.6-0.1,0.9-0.1L6,14.2l1.2-0.1l0.9-0.1
	h0.5c0.3,0,0.7,0,1.1,0l1.4-0.1l1.4-0.1c0.4,0,0.8,0,1.1,0c0.2,0,0.4,0.1,0.5,0.2c0.1,0.1,0.2,0.3,0.2,0.5c0,0.3,0,0.7,0,1
	c0,0.4,0,0.9-0.1,1.4c-0.1,0.5-0.1,1-0.2,1.5s-0.1,1-0.2,1.4s-0.1,0.8-0.1,1.2c0,0.2,0,0.5,0,0.7c0,0.2,0.1,0.3,0.1,0.5
	c0.1,0.1,0.2,0.3,0.3,0.4c0.1,0.1,0.2,0.2,0.4,0.2c0.1,0,0.2,0.1,0.4,0.1c0.2,0,0.3-0.1,0.4-0.1c0.2-0.1,0.4-0.2,0.5-0.4
	c0.2-0.2,0.3-0.3,0.4-0.5c0.1-0.2,0.2-0.4,0.2-0.6c0-0.4,0-0.8,0-1.3s0-1,0-1.5l0.1-1.5c0-0.5,0.1-1,0.1-1.4s0-0.8,0.1-1
	s0-0.4,0-0.5c0.1-0.8,0.1-1.6,0.3-2.4s0.2-1.6,0.4-2.3s0.3-1.4,0.4-2.1L18,5c0.1-0.6,0.2-1.1,0.3-1.6c0.1-0.4,0.1-0.8,0.1-1.1
	c0-0.2-0.1-0.3-0.2-0.4C18.1,1.7,18,1.6,17.9,1.5z"/>
<path class="st0" d="M24.2,5.2c0.4,0.1,0.7,0.2,1.1,0.2c0.5,0,1-0.2,1.2-0.6C26.9,4.4,27,3.9,27,3.4c0-0.3-0.1-0.7-0.4-0.8
	c-0.4-0.1-0.7-0.2-1.1-0.2c-0.2,0-0.4,0.1-0.6,0.2c-0.4,0.2-0.7,0.6-0.9,0.9c-0.2,0.3-0.4,0.8-0.4,1.2C23.6,5,23.8,5.1,24.2,5.2z"/>
<path class="st0" d="M44.9,10.9c-0.3-0.1-0.6-0.2-0.9-0.2c-0.3,0-0.5,0-0.8,0c-0.6,0.1-1.2,0.3-1.8,0.6c-0.7,0.3-1.4,0.8-2,1.3
	c-0.7,0.7-1.4,1.5-1.9,2.4l-0.4,0.6C37,15.8,37,16,36.9,16.1l-0.2,0.4L36.4,17c-0.1,0.2-0.2,0.4-0.3,0.6s-0.2,0.5-0.4,0.8
	c0.1-0.5,0.1-1,0.2-1.4s0.1-0.7,0.1-1s0.1-0.7,0.2-1s0.2-0.8,0.3-1.2c0-0.2,0.1-0.5,0.2-0.8s0.1-0.5,0.2-0.8s0.1-0.5,0.1-0.8
	s0-0.5,0-0.7c0-0.1,0-0.2-0.1-0.2c-0.1-0.1-0.1-0.2-0.2-0.2c-0.1-0.1-0.2-0.1-0.3-0.2c-0.1-0.1-0.1-0.1-0.2-0.1
	c-0.3,0-0.5,0.1-0.7,0.3c-0.2,0.3-0.3,0.6-0.4,0.9c-0.1,0.4-0.2,0.9-0.3,1.3c0,0.3-0.1,0.7-0.2,1s-0.4,0.5-0.6,0.7s-0.6,0.7-1,1.1
	l-1.1,1.1c-0.4,0.4-0.8,0.7-1.2,1.1c-0.4,0.4-0.8,0.7-1.2,1c-0.4,0.3-0.8,0.5-1.2,0.8c-0.7,0.4-1.4,0.6-2.2,0.7
	c-0.6,0-1-0.5-1.3-1.3c-0.2-0.8-0.4-1.7-0.4-2.6c0-0.4,0-0.9,0.1-1.4s0.1-1.1,0.2-1.8c0.1-0.4,0.1-0.7,0.2-1.1c0-0.3,0.1-0.7,0.1-1
	c0-0.4-0.1-0.6-0.3-0.6c-0.4,0-0.9,0.2-1.2,0.5c-0.4,0.2-0.6,0.6-0.8,1c-0.1,0.3-0.1,0.5-0.2,0.8c0,0.3-0.1,0.7-0.1,1.2
	c-0.1,0.9-0.2,1.6-0.2,2c0,1,0.1,2,0.3,3c0.2,0.9,0.6,1.8,1.2,2.5c0.6,0.7,1.5,1.1,2.4,1c1.2-0.1,2.3-0.6,3.2-1.3
	c0.6-0.4,1.2-0.9,1.7-1.4c0.5-0.5,1-1,1.5-1.5l1.2-1.3c0.3-0.4,0.6-0.7,0.8-1.1v0.2c0,0.6-0.1,1.1-0.2,1.5s-0.1,0.7-0.1,1
	S34,19,34,19.2s0,0.5,0,0.8s0,0.6,0,0.9c0.1,1.2,0.4,1.9,1,1.8c0.1,0,0.2,0,0.3,0c0.2,0,0.3-0.1,0.5-0.1c0.1,0,0.3-0.1,0.4-0.2
	c0.1-0.1,0.2-0.1,0.2-0.2c0.1-0.2,0.1-0.4,0.1-0.6c0-0.2,0.1-0.4,0.2-0.6c0.1-0.4,0.3-0.9,0.4-1.2s0.3-0.8,0.4-1.1
	c0.6-1.6,1.6-3,2.8-4.2c1.1-1.1,2.5-1.7,4-1.8h0.2h0.4h0.4h0.3c0.1,0,0.2,0,0.2-0.1c0.1-0.1,0.1-0.2,0.1-0.3c0-0.1,0.1-0.2,0.1-0.3
	c0-0.1,0-0.2,0-0.2c0-0.2-0.1-0.4-0.3-0.5C45.4,11,45.1,10.9,44.9,10.9z"/>
<path class="st0" d="M92,5.1l0.1,0.2c0,0.1,0.1,0.1,0.1,0.2l0.1,0.4v0.2c0,0.1,0,0.2,0,0.2c0,0.1,0.1,0.1,0.1,0.2
	c0,0,0.1,0.1,0.2,0.1c0.2,0,0.3,0,0.5-0.1c0.2,0,0.3-0.1,0.5-0.2c0.2-0.1,0.3-0.2,0.4-0.3c0.1-0.1,0.2-0.2,0.3-0.3
	c0.1-0.1,0.1-0.3,0.2-0.5c0.1-0.2,0.1-0.4,0.2-0.6s0.1-0.4,0.1-0.5c0-0.1,0-0.2,0-0.4c0-0.1-0.1-0.2-0.1-0.3
	c-0.1-0.1-0.2-0.2-0.3-0.2c-0.1-0.1-0.3-0.1-0.4-0.2c-0.1,0-0.2-0.1-0.3-0.1c-0.2,0-0.5,0-0.7,0.2c-0.2,0.1-0.4,0.2-0.5,0.4
	c-0.1,0.1-0.3,0.3-0.4,0.4c-0.1,0.1-0.1,0.3-0.1,0.5c0,0.1,0,0.3,0,0.4C91.9,5,91.9,5.1,92,5.1z"/>
<path class="st0" d="M98.7,17.5c-0.1,0-0.2,0-0.3,0.1c-0.1,0.1-0.3,0.2-0.4,0.3c-0.2,0.1-0.3,0.2-0.5,0.4l-0.6,0.5
	c-0.2,0.2-0.5,0.4-0.8,0.5c-0.3,0.2-0.7,0.4-1,0.5c-0.3,0.2-0.7,0.3-1,0.4c-0.3,0.1-0.7,0.1-1,0.2c-0.4,0-0.7-0.1-1-0.3
	c-0.2-0.2-0.4-0.5-0.5-0.8c-0.1-0.3-0.2-0.7-0.2-1c0-0.4,0-0.7,0-1.1c0-0.7,0.1-1.3,0.2-2c0.1-0.6,0.3-1.2,0.4-1.7s0.3-1,0.4-1.4
	c0.1-0.3,0.2-0.7,0.2-1c0-0.1,0-0.2-0.1-0.3c-0.1-0.1-0.1-0.2-0.2-0.3c-0.1-0.1-0.3-0.2-0.4-0.2c-0.2-0.1-0.4-0.1-0.6-0.1
	c-0.2,0-0.4,0.1-0.5,0.2c-0.1,0.1-0.2,0.3-0.3,0.4c-0.1,0.2-0.1,0.4-0.2,0.6c0,0.2,0,0.4,0,0.6c0,0.3-0.1,0.6-0.1,0.9
	c-0.1,0.3-0.1,0.6-0.2,0.9l-1,1c-0.6,0.6-1.1,1.1-1.7,1.5c-0.7,0.7-1.5,1.2-2.5,1.4c-0.6,0-1.1-0.3-1.4-0.8
	c-0.2-0.3-0.4-0.5-0.6-0.8c-0.2-0.3-0.3-0.6-0.4-0.9c-0.1-0.3-0.2-0.6-0.4-1s-0.3-0.8-0.4-1.2s-0.2-0.7-0.4-0.9
	c-0.1-0.2-0.2-0.5-0.3-0.7c-0.2-0.4-0.6-0.6-1.1-0.5c-0.7,0.1-1.3,0.4-1.7,1c-0.7,0.7-1.2,1.6-1.7,2.4c-0.1,0.1-0.2,0.2-0.3,0.5
	l-0.4,0.8l-0.4,0.8l-0.2,0.5c-0.4,0.7-0.7,1-0.8,1s-0.2-0.6-0.3-1.8c-0.1-0.6-0.1-1.2-0.2-1.7s-0.2-1-0.3-1.5c-0.1-0.8-0.4-1.5-1-2
	c-0.1-0.1-0.3-0.1-0.4-0.1c-0.9,0-1.8,0.5-2.3,1.2c-0.4,0.4-0.7,0.9-1.2,1.5s-0.8,1.2-1.3,2s-0.9,1.4-1.2,1.8
	c-0.3,0.4-0.6,0.7-0.9,1c0-0.6,0.1-1.3,0.2-1.9c0.1-0.4,0.2-0.8,0.2-1.2s0.2-0.8,0.2-1.2s0.1-0.8,0.2-1.2c0-0.3,0.1-0.7,0.1-1
	c0-1.2-0.4-1.7-1.3-1.7c-0.2,0-0.4,0.1-0.5,0.2C64,10.3,64,10.5,64,10.7l0,0l-0.7,0.2l-0.9,0.3l-0.9,0.3l-0.8,0.2l-0.4,0.1
	c-0.2,0-0.5,0.1-0.7,0.1s-0.5,0.1-0.8,0.1L58,12h-0.7c-0.3,0-0.5-0.1-0.7-0.3c-0.3-0.2-0.5-0.4-0.8-0.7c-0.3-0.3-0.5-0.5-0.7-0.7
	c-0.2-0.2-0.4-0.3-0.6-0.3c-0.1,0-0.2,0-0.3,0.1c-0.1,0-0.2,0-0.2,0c-0.1,0-0.1,0-0.1-0.1c-0.1-0.1-0.1-0.1-0.2-0.2
	c-0.1-0.1-0.1-0.1-0.2-0.2c-0.1-0.1-0.1-0.1-0.2-0.2c-0.1,0-0.2-0.1-0.3-0.1c-0.5,0-0.9,0.1-1.3,0.3c-0.5,0.2-0.9,0.5-1.2,0.9
	c-0.4,0.4-0.8,0.8-1.2,1.2c-0.4,0.5-0.7,0.9-1,1.4c-0.3,0.5-0.5,0.9-0.8,1.4c-0.2,0.4-0.4,0.8-0.5,1.2c0,0.1-0.1,0.3-0.1,0.5
	s-0.1,0.4-0.1,0.6s-0.1,0.4-0.1,0.6c0,0.2,0,0.3,0,0.5c0,0.5,0,0.9,0.2,1.4c0.1,0.4,0.2,0.8,0.4,1.2c0.2,0.3,0.4,0.6,0.7,0.8
	c0.3,0.2,0.6,0.3,0.9,0.3c0.5,0,1.1,0,1.6-0.1c0.5-0.1,1-0.2,1.5-0.5c0.4-0.2,0.8-0.4,1.2-0.7c0.4-0.2,0.7-0.5,1-0.7
	c0.3-0.2,0.6-0.5,0.8-0.8c0.2-0.3,0.5-0.7,0.7-1c0.1-0.2,0.2-0.3,0.2-0.5c0.1-0.2,0.1-0.4,0.2-0.6s0.1-0.4,0.2-0.7
	c0-0.2,0.1-0.4,0.1-0.6c0-0.3,0-0.7-0.1-1c-0.1-0.3-0.1-0.6-0.2-1c0.1,0.1,0.2,0.2,0.4,0.2l0.5,0.2l0.5,0.1c0.1,0,0.3,0.1,0.4,0.1
	c0.3,0,0.6,0,1-0.1l1.1-0.1c0.4,0,0.8-0.1,1.1-0.2c0.3-0.1,0.6-0.1,0.9-0.2c0.2-0.1,0.3-0.1,0.5-0.2c0.2-0.1,0.4-0.2,0.6-0.4
	c0.2-0.1,0.4-0.3,0.6-0.5c0.2-0.1,0.3-0.3,0.5-0.4c0,0.4-0.1,0.8-0.2,1.2s-0.2,1-0.3,1.8c-0.1,0.4-0.1,0.8-0.2,1.1s-0.1,0.6-0.1,0.9
	S63,17.5,63,17.7s0,0.5,0,0.8c0,0.8,0.1,1.5,0.3,2.2c0.1,0.6,0.7,1,1.3,1c0.4,0,0.7-0.2,0.9-0.5c0.1-0.2,0.3-0.4,0.4-0.7
	s0.3-0.6,0.5-0.9l0.3-0.7l0.4-0.6c0.4-0.7,0.8-1.4,1.3-2.1c0.5-0.7,1-1.4,1.6-2.1c0.6-0.7,1-1,1.3-1.1c0.3,0.3,0.5,0.8,0.5,1.2
	c0,0.2,0,0.6,0.1,1.1s0,1,0,1.7c0,1,0.1,1.9,0.4,2.9c0.2,0.5,0.6,0.9,1.2,0.8c0.4,0,0.8-0.3,1.3-1c0.6-0.9,1.2-1.8,1.7-2.8
	c0.7-1.2,1.3-2.1,1.7-2.8c0.4-0.6,0.8-0.9,1.2-0.9c0.2,0,0.5,0.4,0.9,1.2l0.5,1.2c0.2,0.4,0.3,0.8,0.5,1.2c0.3,0.7,0.7,1.4,1.1,2
	c0.3,0.5,0.9,0.8,1.5,0.9c0.6,0,1.1-0.2,1.6-0.5c0.3-0.2,0.6-0.4,0.9-0.5c0.3-0.2,0.5-0.4,0.7-0.5c0.6-0.5,1.2-1.1,1.8-1.8
	c0.2-0.2,0.4-0.4,0.6-0.7c0,0.2-0.1,0.3-0.1,0.5c-0.1,0.6-0.1,1.3-0.1,1.9c0,0.5,0.1,1,0.2,1.5c0.1,0.5,0.3,0.9,0.6,1.3
	c0.3,0.4,0.6,0.7,1.1,0.9c0.5,0.3,1,0.4,1.5,0.4c0.5,0,1-0.1,1.4-0.2c0.4-0.1,0.8-0.3,1.2-0.4c0.3-0.2,0.7-0.3,1-0.5
	c0.3-0.2,0.5-0.4,0.7-0.5c0.3-0.2,0.6-0.5,0.9-0.8c0.2-0.2,0.5-0.5,0.7-0.8c0.2-0.2,0.3-0.4,0.4-0.7c0.1-0.2,0.1-0.3,0.1-0.5
	c0-0.1,0-0.2-0.1-0.3C99,17.5,98.9,17.5,98.7,17.5z M54.4,14.6c-0.1,0.6-0.2,1.1-0.4,1.6c-0.2,0.5-0.4,1-0.7,1.4
	c-0.3,0.4-0.6,0.8-0.9,1.1c-0.3,0.3-0.7,0.6-1.2,0.8c-0.5,0.2-0.9,0.3-1.4,0.3c-0.2,0-0.4,0-0.5-0.1c-0.3-0.2-0.6-0.4-0.7-0.8
	c-0.1-0.2-0.1-0.4-0.1-0.5c0-0.5,0.1-1,0.2-1.5c0.1-0.6,0.3-1.2,0.5-1.7c0.2-0.6,0.5-1.1,0.8-1.6c0.3-0.4,0.6-0.8,1-1.2l0.4-0.3
	c0.1-0.1,0.3-0.2,0.4-0.3c0.1-0.1,0.3-0.1,0.4-0.2c0.1-0.1,0.3-0.1,0.4-0.1c0.2,0,0.4,0,0.6,0.1c0.2,0.1,0.4,0.2,0.6,0.3
	c0.2,0.1,0.4,0.3,0.5,0.4c0.1,0.1,0.2,0.3,0.3,0.5C54.6,13.4,54.5,14,54.4,14.6z"/>
<path class="st0" d="M101.3,3.2c-0.4,0-0.9,0.6-1.3,1.7c-0.2,0.6-0.4,1.1-0.5,1.5s-0.2,0.9-0.3,1.2c0,0.2-0.1,0.4-0.1,0.7
	S99,8.9,99,9.4c0,0.2,0,0.4-0.1,0.5c0,0.1,0,0.2-0.1,0.4c0,0.1,0,0.2,0,0.3v0.3c0,0.4,0.1,0.7,0.3,1c0.2,0.4,0.4,0.6,0.7,0.6
	c0.2,0,0.5-0.1,0.6-0.3c0.1-0.3,0.2-0.5,0.2-0.8c0-0.2,0-0.3,0-0.5c0-0.2,0-0.4,0-0.7s0-0.5,0-0.7s0-0.4,0-0.5
	c0.1-0.5,0.2-1.1,0.4-1.6c0.1-0.4,0.2-0.6,0.2-0.8s0.1-0.4,0.1-0.4c0-0.1,0.1-0.2,0.1-0.3c0.1-0.1,0.1-0.3,0.2-0.5
	c0.2-0.3,0.3-0.7,0.3-1c0-0.2-0.1-0.5-0.2-0.7C101.7,3.3,101.5,3.2,101.3,3.2z"/>
<path class="st0" d="M112,17.7c-0.2-0.2-0.4-0.5-0.6-0.7l-0.7-0.7l-0.8-0.7l-0.8-0.6c-0.2-0.2-0.5-0.4-0.7-0.7
	c-0.2-0.2-0.4-0.5-0.6-0.8c0.3-0.3,0.5-0.6,0.8-0.8l1.1-1c0.3-0.3,0.5-0.6,0.7-0.9c0.2-0.2,0.3-0.5,0.3-0.8c0-0.7-0.3-1-0.9-1
	c-0.2,0-0.5,0.1-0.7,0.2c-0.3,0.1-0.5,0.3-0.7,0.5c-0.3,0.2-0.5,0.5-0.7,0.8c-0.2,0.3-0.5,0.6-0.7,0.9c-0.1,0.2-0.3,0.4-0.4,0.6
	c-0.1,0.2-0.2,0.4-0.3,0.7c-0.1,0.2-0.2,0.5-0.2,0.7c-0.1,0.2-0.1,0.5-0.1,0.7c0,0.4,0.1,0.8,0.3,1.2c0.2,0.4,0.5,0.7,0.8,1
	c0.3,0.3,0.6,0.6,1,0.9c0.4,0.3,0.7,0.5,1,0.8c0.3,0.3,0.6,0.5,0.8,0.9c0.2,0.3,0.3,0.6,0.3,0.9c0,0.3-0.1,0.6-0.2,0.9
	c-0.2,0.4-0.4,0.7-0.7,0.9c-0.1,0.1-0.2,0.2-0.4,0.2c-0.1,0.1-0.3,0.1-0.4,0.2c-0.1,0-0.2,0.1-0.4,0.1H108h-0.2h-0.2h-0.2h-0.1
	c-0.2,0.1-0.4,0.2-0.5,0.4c-0.1,0.2-0.2,0.5-0.2,0.7c0,0.3,0.1,0.6,0.2,0.8c0.2,0.2,0.5,0.3,0.8,0.3c0.3,0,0.7-0.1,1-0.2
	c0.4-0.1,0.7-0.3,1.1-0.5c0.4-0.2,0.7-0.5,1-0.8c0.3-0.3,0.6-0.6,0.9-1c0.3-0.4,0.5-0.8,0.6-1.2c0.2-0.4,0.2-0.8,0.2-1.3
	c0-0.3-0.1-0.6-0.2-0.8C112.2,18.1,112.1,17.9,112,17.7z"/>
<path class="st0" d="M142.9,4.4c-0.6-0.5-1.4-0.8-2.1-1c-0.4-0.1-0.8-0.2-1.2-0.2s-0.8-0.1-1.2-0.1s-0.8,0-1.3,0h-1.3
	c-0.5,0-1.3,0.1-2.4,0.2c-0.5,0.1-1.1,0.1-1.6,0.2s-1,0.2-1.6,0.3c-0.8,0.1-1.5,0.4-2.3,0.6c-0.4,0.2-0.7,0.4-1,0.7
	c-0.3,0.3-0.4,0.6-0.4,1c0,0.2,0.1,0.3,0.2,0.4c0.1,0.1,0.3,0.2,0.5,0.2c0.2,0,0.3-0.1,0.4-0.1c1.3-0.5,2.6-0.8,3.9-1.1
	c1.8-0.4,3.5-0.5,5.3-0.6h0.9l1,0.1c0.4,0,0.7,0.1,1.1,0.1c0.4,0,0.7,0.1,1.1,0.2c0.7,0.2,1,0.5,1,0.8c-0.1,1-0.6,1.9-1.3,2.5
	c-0.4,0.4-0.9,0.9-1.4,1.2c-0.5,0.4-0.9,0.7-1.4,1c-0.8,0.4-1.5,0.9-2.3,1.2s-1.7,0.8-2.7,1.2l-1.4,0.6l-1,0.4c0-0.2,0-0.4,0-0.6
	s0-0.5,0.1-0.7s0.1-0.5,0.1-0.8s0.1-0.6,0.1-0.9s0.1-0.6,0.1-0.8s0.1-0.5,0.1-0.8c0-0.2,0.1-0.5,0.2-0.7c0,0,0.1-0.2,0.1-0.4
	l0.2-0.7c0.1-0.2,0.2-0.5,0.2-0.7c0-0.1,0.1-0.3,0.1-0.4c0-0.3-0.1-0.6-0.2-0.8c-0.2-0.2-0.4-0.3-0.7-0.3c-0.1,0-0.3,0-0.4,0.1
	c-0.2,0.2-0.4,0.5-0.6,0.8c-0.1,0.3-0.3,0.6-0.4,0.8c-0.1,0.3-0.2,0.7-0.3,1c0,0.2-0.1,0.4-0.1,0.5S129,9.2,129,9.3
	c-0.1,0.4-0.2,0.8-0.3,1.2s-0.1,0.9-0.2,1.5c0,0.3-0.1,0.6-0.1,0.8c0,0.3-0.1,0.5-0.1,0.8c-0.1,0.8-0.2,1.4-0.2,2c0,0.5,0,1.1,0,1.6
	v0.4c0,4.1,0.5,6.1,1.4,6.1c0.3,0,0.6-0.1,0.8-0.3c0.2-0.2,0.3-0.5,0.3-0.8c0-0.4,0-0.8,0-1.2s-0.1-1-0.1-1.6s-0.1-1.1-0.1-1.5
	s0-0.8,0-1v-0.4c0-0.3,0-0.4,0.1-0.5c0.9-0.3,1.8-0.6,2.7-1s1.8-0.8,2.7-1.3c1.4-0.7,2.8-1.5,4.1-2.4c1.1-0.7,2.1-1.6,2.9-2.7
	c0.1-0.2,0.2-0.4,0.3-0.6c0.1-0.2,0.2-0.5,0.4-0.8c0.2-0.4,0.3-0.9,0.4-1.3C143.9,5.5,143.5,4.8,142.9,4.4z"/>
<path class="st0" d="M155.8,10.6c-0.3-0.4-0.7-0.7-1.2-0.9c-0.4-0.2-0.9-0.3-1.4-0.3c-0.6,0-1.2,0.1-1.8,0.3c-1.6,0.5-3,1.4-4.1,2.7
	c-0.2,0.2-0.4,0.5-0.5,0.8c-0.2,0.3-0.4,0.6-0.5,1s-0.3,0.7-0.5,1.1c-0.2,0.4-0.3,0.8-0.4,1.1c-0.1,0.4-0.2,0.7-0.3,1.1
	c-0.1,0.3-0.1,0.6-0.1,0.9c0,0.4,0.1,0.8,0.2,1.2c0.3,0.8,0.9,1.5,1.7,1.8c0.5,0.2,1,0.3,1.5,0.3c0.5,0,0.9-0.1,1.4-0.3
	c0.5-0.2,1.1-0.4,1.6-0.7c0.5-0.3,1.1-0.6,1.6-1c0.5-0.4,1-0.8,1.4-1.2c0.4-0.4,0.8-0.7,1.1-1.1c0.3-0.3,0.5-0.6,0.6-0.9
	c0.1-0.2,0.2-0.5,0.3-0.7c0.1-0.2,0.2-0.5,0.2-0.7c0.1-0.2,0.1-0.5,0.1-0.7c0-0.3,0-0.5,0-0.8c0-0.5-0.1-1.1-0.3-1.6
	C156.4,11.5,156.1,11,155.8,10.6z M154.6,15.3c-0.2,0.5-0.5,0.9-0.9,1.4c-0.4,0.4-0.8,0.8-1.2,1.2c-0.4,0.4-0.9,0.7-1.4,1
	c-0.4,0.3-0.8,0.5-1.3,0.6c-0.3,0.1-0.7,0.2-1,0.2c-0.2,0-0.4,0-0.6-0.1c-0.2-0.1-0.4-0.2-0.5-0.4c-0.1-0.2-0.2-0.3-0.3-0.5
	c-0.1-0.2-0.1-0.4-0.1-0.6c0-0.4,0.1-0.8,0.2-1.1c0.1-0.4,0.3-0.9,0.4-1.3c0.2-0.4,0.4-0.8,0.6-1.2c0.2-0.3,0.3-0.6,0.5-0.9
	c0.2-0.2,0.4-0.4,0.6-0.7c0.2-0.3,0.5-0.5,0.8-0.8c0.3-0.2,0.6-0.4,0.9-0.6c0.3-0.2,0.6-0.2,0.9-0.2c0.8-0.1,1.5,0.2,2.1,0.7
	c0.5,0.5,0.8,1.3,0.7,2C154.9,14.4,154.8,14.9,154.6,15.3z"/>
<path class="st0" d="M170.1,10c-0.2-0.1-0.5-0.2-0.7-0.2c-0.2,0-0.5,0-0.7,0c-0.6,0.1-1.1,0.3-1.6,0.6c-0.5,0.3-0.9,0.7-1.3,1.2
	c-0.5,0.5-0.9,1.1-1.2,1.8c-0.3,0.6-0.6,1.2-0.9,1.9c-0.2,0.6-0.5,1.2-0.7,1.8c-0.2,0.5-0.4,1-0.6,1.5c0-0.5,0-1,0-1.4
	s0-0.8,0.1-1.2s0.1-0.8,0.2-1.1l0.2-1.4c0.1-0.4,0.2-0.9,0.2-1.3c0-0.3,0-0.6-0.1-0.8c0-0.1-0.1-0.1-0.1-0.2
	c-0.1-0.1-0.1-0.1-0.2-0.2c-0.1-0.1-0.2-0.1-0.2-0.2c-0.1,0-0.2-0.1-0.3-0.1c-0.2,0-0.3,0-0.5,0.1c-0.2,0.1-0.3,0.2-0.4,0.3
	c-0.1,0.1-0.3,0.3-0.4,0.5c-0.1,0.2-0.1,0.4-0.2,0.6c0,0.2,0,0.5,0,0.7v0.6c0,0.2,0,0.5,0,0.7s0,0.6,0,1s0,0.8-0.1,1.3l-0.1,1.5
	c0,0.5,0,1-0.1,1.4s0,0.8,0,1.1s0,0.6,0,0.9c0,0.3,0.1,0.7,0.2,1c0.1,0.3,0.2,0.5,0.4,0.7c0.1,0.2,0.3,0.3,0.6,0.3
	c0.1,0,0.2,0,0.3-0.1l0.5-0.1c0.1-0.1,0.3-0.1,0.4-0.2c0.1-0.1,0.2-0.1,0.2-0.2c0.1-0.3,0.1-0.6,0.2-0.9s0.1-0.6,0.2-1
	s0.2-0.6,0.3-0.9s0.2-0.6,0.3-0.9l0.6-1.5c0.2-0.5,0.4-1.1,0.7-1.6s0.5-1,0.7-1.5c0.2-0.4,0.5-0.8,0.8-1.1c0.3-0.3,0.5-0.5,0.7-0.7
	c0.2-0.2,0.3-0.3,0.5-0.5c0.2-0.1,0.3-0.2,0.5-0.3c0.2-0.1,0.5-0.1,0.7-0.1h1.2c0.1,0,0.2-0.1,0.2-0.1c0.1-0.1,0.2-0.2,0.3-0.3
	c0.1-0.1,0.2-0.2,0.2-0.3c0-0.1,0.1-0.2,0.1-0.3c0-0.2-0.1-0.4-0.3-0.6C170.4,10.2,170.3,10.1,170.1,10z"/>
<path class="st0" d="M219.9,5.2c0.4,0.1,0.8,0.2,1.1,0.2c0.5,0,0.9-0.2,1.2-0.6c0.3-0.4,0.5-0.9,0.4-1.4c0-0.3-0.1-0.7-0.4-0.8
	c-0.4-0.1-0.7-0.2-1.1-0.2c-0.2,0-0.4,0.1-0.6,0.2c-0.4,0.2-0.7,0.6-0.9,0.9c-0.3,0.3-0.4,0.8-0.4,1.2C219.2,5,219.4,5.1,219.9,5.2z
	"/>
<path class="st0" d="M239.7,12c-0.2-0.5-0.5-0.9-0.8-1.3c-0.3-0.4-0.7-0.7-1.2-0.9c-0.4-0.2-0.9-0.3-1.4-0.3c-0.6,0-1.2,0.1-1.8,0.3
	c-1.6,0.5-3,1.4-4.1,2.7c-0.2,0.2-0.4,0.5-0.5,0.8c-0.2,0.3-0.4,0.6-0.5,1c-0.1,0.2-0.1,0.4-0.2,0.5s-0.4,0.4-0.6,0.7
	s-0.8,0.8-1.1,1.1s-0.8,0.7-1.2,1.1s-0.8,0.7-1.2,1s-0.8,0.5-1.2,0.8c-0.7,0.4-1.4,0.6-2.2,0.7c-0.6,0-1-0.5-1.3-1.3
	c-0.2-0.8-0.3-1.7-0.4-2.6c0-0.4,0-0.9,0.1-1.4s0.1-1.1,0.2-1.8c0.1-0.4,0.1-0.7,0.2-1.1c0-0.3,0.1-0.7,0.1-1c0-0.4-0.1-0.6-0.3-0.6
	c-0.5,0-0.9,0.2-1.2,0.5c-0.4,0.2-0.6,0.6-0.8,1c-0.1,0.3-0.1,0.5-0.2,0.8c-0.1,0.3-0.1,0.7-0.2,1.2s-0.1,0.9-0.1,1.3
	c-0.2,0.3-0.5,0.6-0.8,0.9c-0.4,0.5-0.8,1-1.3,1.4s-0.8,0.9-1.3,1.2c-0.4,0.4-0.8,0.7-1.2,1c-0.4,0.3-0.7,0.5-1.1,0.7
	c-0.3,0.1-0.7,0.2-1,0.2c-0.2,0-0.4,0-0.5-0.1c-0.2-0.1-0.4-0.3-0.5-0.5c-0.2-0.3-0.3-0.6-0.4-0.9c-0.1-0.5-0.2-0.9-0.1-1.4
	c0-0.6,0-1.4,0.1-2.1s0.2-1.6,0.3-2.3s0.2-1.5,0.4-2.3s0.3-1.4,0.4-1.9c0.1-0.2,0.1-0.4,0.2-0.7c0.1-0.3,0.2-0.6,0.4-0.9
	s0.3-0.7,0.4-1s0.3-0.7,0.4-1s0.2-0.6,0.3-0.9c0.1-0.2,0.1-0.4,0.1-0.6c0-0.2,0-0.3-0.1-0.5c-0.1-0.2-0.1-0.3-0.2-0.4
	c-0.1-0.1-0.2-0.2-0.4-0.3c-0.1-0.1-0.3-0.1-0.5-0.1c-0.3,0-0.5,0.1-0.7,0.2c-0.2,0.2-0.4,0.4-0.6,0.7c-0.2,0.4-0.4,0.7-0.5,1.1
	c-0.1,0.5-0.3,1-0.5,1.7C208.8,7,208.6,8,208.4,9c-0.1,0.7-0.2,1.4-0.4,2.1c-0.3,0.1-0.6,0.2-0.8,0.2l-0.9,0.2
	c-0.3,0.1-0.6,0.1-1,0.2s-0.7,0.1-1,0.1s-0.9,0-1.5,0c-0.4,0-0.7,0-1.1-0.1c-0.2-0.1-0.4-0.2-0.6-0.3l-0.3-0.3l-0.4-0.5
	c-0.1-0.2-0.3-0.4-0.4-0.5c-0.1-0.1-0.3-0.3-0.4-0.4c-0.1-0.1-0.3-0.2-0.5-0.3c-0.2-0.1-0.4-0.1-0.6-0.1c-0.5,0-0.9,0-1.3,0.1
	c-0.4,0.1-0.7,0.2-1,0.4c-0.3,0.2-0.5,0.4-0.7,0.6c-0.2,0.2-0.4,0.5-0.6,0.8c-0.2,0.3-0.4,0.6-0.6,0.9c0,0-0.1,0.1-0.1,0.1
	c-0.2,0-0.5,0.1-0.7,0.1c-0.5,0.1-1.1,0.1-1.6,0.1s-1.1,0.1-1.7,0.1h-2c-0.9,0-1.3-0.2-1.3-0.5v-0.6c0-0.4,0.1-0.9,0.2-1.3
	s0.2-1,0.3-1.5c0.2-0.9,0.5-1.8,0.8-2.6c0.2-0.5,0.5-0.9,0.8-1.3c0.2-0.3,0.6-0.6,1-0.6c0.3,0,0.5,0.3,0.6,0.8
	c0.1,0.5,0.2,1,0.2,1.4c0,0.6-0.1,1.3-0.2,1.9l0,0c0.3,0,0.6-0.3,1-0.8c0.6-0.8,0.9-1.7,0.9-2.6c0-0.6-0.2-1.2-0.7-1.7
	c-0.4-0.4-1-0.7-1.6-0.7c-0.7,0-1.4,0.3-1.9,0.8c-0.5,0.5-1,1.1-1.4,1.8c-0.2,0.4-0.5,0.9-0.6,1.4c-0.2,0.5-0.3,1-0.4,1.4
	c-0.1,0.5-0.2,1-0.3,1.8c-0.1,0.3-0.1,0.5-0.1,0.8l-0.2,0.1c-0.2,0.1-0.4,0.1-0.7,0.2l-0.9,0.2l-1,0.2l-1.3,0.1l-1.1,0.1l-1,0.1
	h-1.1c-0.2,0-0.4-0.1-0.5-0.3c0,0,0-0.1,0-0.1c0-0.6,0.1-1.1,0.3-1.7c0.2-0.8,0.5-1.9,0.9-3.2c0.2-0.5,0.3-1,0.3-1.5
	c0-0.7-0.3-1-0.9-1c-0.4,0-0.8,0.3-0.9,0.7c-0.1,0.2-0.2,0.5-0.2,0.7c-0.1,0.2-0.1,0.5-0.2,0.8l-0.1,0.8c-0.1,0.3-0.1,0.5-0.2,0.8
	l-0.2,0.8c-0.1,0.3-0.2,0.6-0.3,1s-0.2,0.6-0.3,1s-0.1,0.6-0.2,0.9c0,0.1-0.1,0.3-0.2,0.4c-0.1,0.1-0.1,0.1-0.2,0.2l-0.2,0.1H175
	h-0.3h-0.4H174h-0.4c-0.2,0-0.3,0-0.4,0.1c-0.2,0-0.3,0.1-0.5,0.2c-0.1,0.1-0.3,0.1-0.4,0.3c-0.1,0.1-0.1,0.2-0.1,0.3
	c0,0.2,0,0.3,0.1,0.4c0.1,0.1,0.1,0.3,0.2,0.4c0.1,0.1,0.2,0.2,0.4,0.3c0.1,0.1,0.3,0.1,0.4,0.1c0.1,0,0.2,0,0.3,0l0.4-0.1l0.4-0.1
	h0.3c0.1,0,0.2,0,0.4,0.1c0.1,0.1,0.2,0.2,0.1,0.3c0,0,0,0.1,0,0.3s-0.1,0.4-0.1,0.6s-0.1,0.5-0.1,0.7s-0.1,0.5-0.1,0.7
	c-0.1,0.5-0.2,1-0.3,1.5s-0.2,1-0.3,1.4s-0.2,0.9-0.3,1.4c-0.1,0.4-0.1,0.8-0.1,1.3c0,0.3,0,0.6,0.1,0.9c0.1,0.3,0.2,0.5,0.3,0.8
	c0.1,0.2,0.3,0.4,0.5,0.5c0.2,0.1,0.4,0.2,0.7,0.2c0.2,0,0.3,0,0.5-0.1c0.2,0,0.4-0.1,0.5-0.2c0.1-0.1,0.3-0.2,0.4-0.3
	c0.1-0.1,0.2-0.2,0.2-0.3c0-0.2,0-0.3-0.2-0.4c-0.1-0.1-0.2-0.2-0.4-0.3c-0.2-0.1-0.3-0.3-0.4-0.4c-0.1-0.2-0.2-0.5-0.2-0.8
	c0-0.2,0-0.4,0.1-0.7c0-0.3,0.1-0.6,0.1-1s0.1-0.7,0.1-1s0.1-0.6,0.1-0.7c0.1-0.7,0.3-1.4,0.5-2.1s0.4-1.4,0.6-2.2
	c0.2-0.1,0.5-0.2,0.8-0.2c0.3,0,0.7-0.1,1-0.1l1.1-0.1l1.1-0.1c0.3,0,0.7-0.1,1-0.1s0.7-0.1,1.1-0.2s0.7-0.2,1.1-0.3l0.3-0.1
	c-0.1,0.2-0.2,0.3-0.4,0.5c-0.3,0.3-0.5,0.7-0.7,1.1c0,0.1,0,0.3,0.1,0.4c0.1,0.1,0.2,0.2,0.3,0.3s0.2,0.2,0.3,0.3
	c0.1,0.1,0.1,0.2,0.1,0.4c0,0.4,0,0.8-0.1,1.2c0,0.5-0.1,0.8-0.1,1.1c0,0.5-0.1,1-0.2,1.5s-0.1,1-0.2,1.5s-0.2,1-0.3,1.6
	s-0.2,1.1-0.3,1.7c-0.1,0.3-0.1,0.6-0.2,0.9c-0.1,0.3-0.2,0.6-0.3,0.8c-0.1,0.2-0.2,0.5-0.4,0.7c-0.1,0.2-0.3,0.4-0.5,0.5
	c-0.2,0-0.4,0-0.6-0.1c-0.2,0-0.4-0.1-0.6-0.1c-0.1,0-0.2,0.1-0.3,0.1c-0.1,0.1-0.2,0.2-0.2,0.4c-0.1,0.1-0.1,0.3-0.2,0.4
	c0,0.1-0.1,0.3-0.1,0.4c0,0.3,0.2,0.5,0.5,0.6c0.3,0.2,0.5,0.2,0.8,0.2c0.8,0,1.6-0.4,2.1-1c0.6-0.7,1.1-1.5,1.4-2.4
	c0.3-0.8,0.5-1.6,0.6-2.4c0.1-0.9,0.2-1.8,0.3-2.5s0.2-1.3,0.2-1.9c0-0.3,0.1-0.6,0.1-0.9s0.1-0.7,0.1-1s0.1-0.7,0.1-1
	s0.1-0.7,0.1-1c0.5,0,1.1,0,1.7-0.1s1.3-0.1,2-0.1c1-0.1,1.9-0.2,2.8-0.4l-0.3,0.6c-0.2,0.4-0.4,0.9-0.6,1.4
	c-0.2,0.5-0.3,0.9-0.5,1.4c-0.1,0.5-0.2,1-0.2,1.5c0,0.5,0,1,0.1,1.4c0.1,0.4,0.2,0.8,0.5,1.2c0.2,0.3,0.5,0.6,0.9,0.8
	c0.4,0.2,0.9,0.3,1.4,0.3c0.4,0,0.7-0.1,1.1-0.1c0.4-0.1,0.8-0.2,1.2-0.4c0.4-0.2,0.8-0.4,1.2-0.6c0.4-0.2,0.8-0.4,1.1-0.7
	c0.3-0.2,0.7-0.5,1-0.8c0.3-0.2,0.5-0.5,0.7-0.8c0.1-0.2,0.3-0.4,0.4-0.6c0.1-0.2,0.2-0.4,0.2-0.7c0.1-0.2,0.1-0.5,0.2-0.7
	c0-0.2,0.1-0.4,0.1-0.7v-0.8c0-0.2,0-0.4,0-0.6s0-0.3,0-0.4s0-0.2,0.1-0.3c0-0.3,0.1-0.5,0.3-0.7c0.4-0.1,0.9-0.2,1.4-0.1
	c0.8,0,1.3-0.1,1.5-0.1c0.3,0,0.7-0.1,1-0.2c0.4-0.1,0.8-0.2,1.1-0.3s0.5-0.2,0.8-0.3c-0.1,0.8-0.2,1.6-0.3,2.4
	c-0.1,1-0.1,2-0.1,2.8c-0.1,1.2,0.2,2.4,0.8,3.5c0.5,0.7,1.3,1.2,2.1,1.2c0.6,0,1.3-0.2,1.8-0.5c0.7-0.3,1.4-0.8,2-1.2
	c0.7-0.6,1.4-1.3,2.1-2c0.5-0.6,1-1.2,1.6-1.9c0,0.6,0.1,1.1,0.2,1.7c0.2,0.9,0.6,1.8,1.2,2.5c0.6,0.7,1.5,1.1,2.4,1
	c1.2-0.1,2.3-0.6,3.2-1.3c0.6-0.4,1.2-0.9,1.7-1.4c0.5-0.5,1-1,1.5-1.5c0.1-0.1,0.2-0.3,0.4-0.4c0,0.2-0.1,0.5-0.1,0.7
	c0,0.4,0.1,0.8,0.2,1.2c0.1,0.4,0.4,0.8,0.6,1.1c0.3,0.3,0.7,0.6,1.1,0.8c0.5,0.2,1,0.3,1.5,0.3c0.5,0,0.9-0.1,1.4-0.3
	c0.5-0.2,1.1-0.4,1.6-0.7c0.5-0.3,1.1-0.6,1.6-1c0.5-0.4,1-0.8,1.4-1.2c0.4-0.4,0.8-0.7,1.1-1.1c0.3-0.3,0.5-0.6,0.6-0.9
	c0.1-0.2,0.2-0.5,0.3-0.7c0.1-0.2,0.2-0.5,0.2-0.7c0.1-0.2,0.1-0.5,0.1-0.7c0-0.3,0-0.5,0-0.8C239.9,13.1,239.8,12.5,239.7,12z
	 M199.8,15.6c0,0.4-0.1,0.8-0.2,1.2c-0.1,0.4-0.3,0.8-0.5,1.1c-0.3,0.4-0.6,0.8-1,1.2c-0.2,0.2-0.4,0.3-0.6,0.5
	c-0.3,0.2-0.5,0.4-0.8,0.5c-0.3,0.2-0.6,0.3-0.9,0.4c-0.2,0.1-0.5,0.1-0.7,0.2c-0.2,0-0.5,0-0.7-0.1c-0.2-0.1-0.3-0.2-0.5-0.3
	c-0.1-0.1-0.2-0.2-0.3-0.4c-0.1-0.1-0.1-0.3-0.1-0.5c0-0.4,0-0.8,0.1-1.2c0.1-0.4,0.2-0.9,0.4-1.3c0.1-0.4,0.3-0.9,0.4-1.3
	s0.3-0.8,0.5-1.2c0.2-0.4,0.4-0.9,0.7-1.2c0.2-0.4,0.5-0.7,0.8-1c0.4-0.5,1-0.9,1.7-0.9c0.2,0,0.4,0,0.5,0.2
	c0.1,0.2,0.2,0.3,0.3,0.5c0.1,0.2,0.2,0.3,0.3,0.5c0.1,0.1,0.2,0.2,0.3,0.3c0.1,0.1,0.2,0.3,0.2,0.4c0.1,0.2,0.1,0.5,0.1,0.8
	C199.8,14.6,199.8,15.1,199.8,15.6z M237.7,15.3c-0.2,0.5-0.5,0.9-0.9,1.4c-0.4,0.4-0.8,0.8-1.2,1.2c-0.4,0.4-0.9,0.7-1.4,1
	c-0.4,0.3-0.8,0.5-1.3,0.6c-0.3,0.1-0.7,0.2-1,0.2c-0.2,0-0.4,0-0.6-0.1c-0.2-0.1-0.4-0.2-0.5-0.4c-0.1-0.2-0.3-0.3-0.3-0.5
	c-0.1-0.2-0.1-0.4-0.1-0.6c0-0.4,0.1-0.8,0.2-1.1c0.1-0.4,0.3-0.9,0.4-1.3c0.2-0.4,0.4-0.8,0.6-1.2c0.2-0.3,0.3-0.6,0.5-0.9
	c0.2-0.2,0.4-0.4,0.6-0.7c0.2-0.3,0.5-0.5,0.8-0.8c0.3-0.2,0.6-0.4,0.9-0.6c0.3-0.2,0.6-0.2,0.9-0.2c0.8-0.1,1.5,0.2,2.1,0.7
	c0.5,0.5,0.8,1.3,0.7,2C238,14.4,237.9,14.9,237.7,15.3z"/>
</svg>
