<svg version="1.1" id="logo" xmlns="http://www.w3.org/2000/svg" xmlns:xlink="http://www.w3.org/1999/xlink" x="0px" y="0px"
	 viewBox="0 0 603.4 78.9" style="enable-background:new 0 0 603.4 78.9;" xml:space="preserve">
<style type="text/css">
	.st0{fill:#FFFFFF;}
</style>
<path class="st0" d="M46.3,8.3c-0.3-0.2-0.7-0.3-1.1-0.4c-0.3-0.1-0.7-0.1-1.1-0.2c-0.4,0-0.9,0.1-1.3,0.3c-0.4,0.2-0.7,0.4-1.1,0.7
	c-0.3,0.2-0.5,0.5-0.7,0.9c-0.2,0.2-0.3,0.5-0.3,0.7c0,1.6-0.1,3.2-0.2,4.8c0,1.6-0.2,3.2-0.4,4.8c-0.2,1.6-0.4,3-0.5,4.4
	c-0.2,1.4-0.4,2.7-0.7,3.7c-0.3,1.1-0.4,2-0.6,2.8c-0.1,0.5-0.3,1-0.5,1.5c-0.5,0.6-1.3,0.9-2,1c-1.3,0.3-2.7,0.6-4.1,0.8
	c-1.6,0.2-3.3,0.4-5,0.6c-1.7,0.2-3.6,0.3-5.3,0.4l-4.4,0.2h-2.5h-1.2c-0.4,0-0.8-0.1-1.2-0.2c-0.3-0.1-0.6-0.2-0.9-0.4
	c-0.3-0.1-0.4-0.4-0.5-0.7c-0.1-1.6,0.1-3.2,0.4-4.7c0.3-1.7,0.7-3.3,1-5c0.4-1.7,0.7-3.4,1-5c0.3-1.6,0.3-3.2,0.1-4.9
	c0-0.7-0.3-1.5-0.9-2c-0.6-0.5-1.4-0.9-2.3-1c-0.3-0.1-0.7-0.1-1,0c-0.3,0.1-0.6,0.3-0.9,0.5c-0.2,0.2-0.4,0.5-0.6,0.8
	c-0.1,0.2-0.2,0.5-0.3,0.8c-0.3,2.2-0.5,4.5-0.8,6.8s-0.4,4.9-0.8,7.2c-0.4,2.4-0.6,4.7-0.9,6.9c-0.3,2.3-0.6,4.4-0.9,6.5
	c-0.3,2.1-0.6,4-0.9,5.8c-0.3,1.8-0.6,3.4-0.9,4.8c-0.1,0.4-0.2,0.9-0.3,1.3l-0.4,1.7c0,0.6-0.2,1.1-0.3,1.6c-0.1,0.5-0.1,0.9,0,1.4
	c0.1,0.5,0.2,0.9,0.5,1.3c0.3,0.5,0.6,0.9,1,1.4c0.3,0.4,0.7,0.8,1.2,1.1c0.3,0.2,0.6,0.4,1,0.4c0.7,0,1.4-0.3,1.8-0.9
	C7.5,60,7.9,59.2,8,58.4c0.2-1.1,0.3-2.2,0.4-3.3c0-1.2,0-2.5,0-3.7c0-0.5,0-1.1,0-1.7s0.2-1.4,0.3-2.2s0.2-1.5,0.3-2.3
	c0.1-0.8,0.3-1.5,0.4-2.1c0.1-0.5,0.2-1.1,0.4-1.6c0.1-0.3,0.2-0.6,0.4-0.8c0.4-0.1,0.8-0.2,1.2-0.2c0.7,0,1.4-0.2,2.3-0.3l3.1-0.3
	l2.9-0.2l2.4-0.2h1.2c0.7,0,1.7,0,2.8,0l3.5-0.3l3.5-0.3c1.1,0,2,0,2.7,0c0.5,0,0.9,0.1,1.3,0.4c0.4,0.3,0.6,0.7,0.6,1.2
	c0,0.8,0,1.7,0,2.5c0,1.1-0.1,2.2-0.3,3.4c-0.2,1.2-0.3,2.5-0.5,3.8c-0.2,1.3-0.4,2.5-0.5,3.6c-0.2,1.1-0.3,2.1-0.4,3
	c-0.1,0.6-0.1,1.2,0,1.8c0,0.4,0.2,0.8,0.4,1.2c0.2,0.3,0.4,0.6,0.7,0.9c0.3,0.2,0.6,0.4,0.9,0.5c0.3,0.1,0.6,0.2,0.9,0.2
	c0.4,0,0.8-0.2,1.1-0.4c0.5-0.3,0.9-0.6,1.3-1c0.4-0.4,0.8-0.9,1.1-1.4c0.3-0.5,0.4-1,0.4-1.6c0-1,0-2.1,0-3.3c0-1.3,0-2.5,0-3.8
	l0.2-3.9c0-1.3,0.2-2.5,0.3-3.4c0.1-0.9,0.1-1.9,0.2-2.5s0-1.1,0-1.3c0.2-2,0.4-3.9,0.7-5.9c0.3-2,0.6-3.9,0.9-5.7
	c0.3-1.9,0.7-3.6,1-5.3l0.9-4.9c0.3-1.5,0.5-2.8,0.7-3.9c0.1-0.9,0.2-1.9,0.2-2.9c0-0.4-0.2-0.8-0.4-1.1C46.9,8.8,46.6,8.5,46.3,8.3
	z"/>
<path class="st0" d="M62.2,17.5c0.9,0.2,1.9,0.4,2.8,0.4c1.2,0.1,2.4-0.5,3.1-1.5c0.7-1,1.1-2.3,1-3.5c0.1-0.8-0.3-1.6-1-2.1
	c-0.9-0.4-1.8-0.5-2.8-0.5c-0.5,0.1-1,0.3-1.4,0.6c-0.9,0.6-1.7,1.4-2.4,2.3c-0.6,0.9-0.9,1.9-1,3C60.7,16.9,61.2,17.3,62.2,17.5z"
	/>
<path class="st0" d="M113.9,31.6c-0.7-0.2-1.5-0.4-2.2-0.5c-0.7-0.1-1.3-0.1-2,0c-1.5,0.2-3,0.7-4.4,1.4c-1.8,0.8-3.5,2-5,3.4
	c-1.9,1.8-3.5,3.8-4.8,6l-1,1.6c-0.3,0.5-0.5,0.9-0.7,1.2l-0.6,1.1l-0.6,1.2c-0.2,0.5-0.5,1-0.7,1.5c-0.3,0.6-0.6,1.3-1,2.1
	c0.2-1.4,0.3-2.5,0.4-3.4c0.1-0.9,0.2-1.8,0.3-2.5c0.1-0.7,0.3-1.7,0.4-2.5c0.2-0.9,0.4-1.9,0.7-3.1c0.1-0.6,0.3-1.3,0.4-2
	s0.3-1.4,0.4-2c0.1-0.7,0.2-1.3,0.2-1.9s0-1.2,0-1.8c0-0.2-0.1-0.4-0.3-0.6c-0.1-0.2-0.3-0.4-0.5-0.6c-0.2-0.2-0.4-0.3-0.7-0.5
	c-0.2-0.1-0.3-0.2-0.6-0.3c-0.7,0-1.4,0.3-1.8,0.8c-0.5,0.7-0.8,1.4-1,2.2c-0.3,1.1-0.5,2.2-0.7,3.3c-0.1,0.8-0.3,1.7-0.4,2.5
	c-0.1,0.8-1,1.2-1.6,1.9s-1.6,1.7-2.5,2.7l-2.9,2.8c-1,0.9-2,1.8-3.1,2.7c-1,0.9-2,1.7-3.1,2.5c-1.1,0.7-2.1,1.4-3.1,2
	c-1.7,1-3.5,1.6-5.5,1.7c-1.6,0-2.6-1.1-3.2-3.4c-0.6-2.1-0.9-4.3-0.9-6.5c0-1,0-2.1,0.2-3.5c0.2-1.3,0.3-2.8,0.6-4.5
	c0.2-0.9,0.3-1.8,0.4-2.7c0.1-0.8,0.2-1.7,0.2-2.5c0-1.1-0.3-1.6-0.9-1.6c-1.1,0-2.2,0.4-3.1,1.2c-0.9,0.6-1.5,1.5-1.9,2.5
	c-0.2,0.7-0.3,1.3-0.4,2c-0.1,0.8-0.3,1.8-0.4,3c-0.3,2.3-0.4,4-0.4,5c0,2.5,0.3,5,0.8,7.5c0.4,2.3,1.4,4.5,2.9,6.3
	c1.5,1.7,3.7,2.6,6,2.5c2.9-0.2,5.7-1.4,8-3.3c1.5-1.1,2.9-2.2,4.3-3.4c1.3-1.2,2.5-2.5,3.8-3.7l2.9-3.3c0.8-1,1.5-1.8,2.1-2.7V44
	c0,1.5-0.3,2.7-0.4,3.8s-0.2,1.7-0.2,2.5c-0.1,0.8-0.2,1.7-0.2,2.2c0,0.5,0,1.3,0,2c0,0.7,0,1.5,0,2.3c0.2,3.1,1,4.7,2.5,4.6
	c0.2,0,0.5-0.1,0.7-0.1c0.4-0.1,0.8-0.2,1.1-0.3c0.4-0.1,0.7-0.3,1.1-0.5c0.3-0.2,0.5-0.3,0.6-0.5c0.2-0.5,0.3-1,0.4-1.5
	c0.1-0.5,0.2-1.1,0.4-1.6c0.3-1.1,0.7-2.1,1-3.1s0.7-1.9,1.1-2.8c1.6-3.9,3.9-7.5,6.9-10.6c2.7-2.7,6.2-4.3,10-4.5h0.6h1h0.9h0.7
	c0.2,0,0.4-0.1,0.5-0.3c0.1-0.2,0.2-0.4,0.3-0.7c0.1-0.2,0.1-0.5,0.2-0.7c0-0.2,0-0.4,0-0.6c0-0.5-0.3-1.1-0.8-1.4
	C115.1,32,114.5,31.7,113.9,31.6z"/>
<path class="st0" d="M231.8,17.3l0.3,0.5c0.1,0.2,0.1,0.3,0.2,0.5l0.2,1v0.6c0,0.2,0,0.4,0,0.6c0,0.2,0.1,0.3,0.3,0.4
	c0.1,0.1,0.3,0.2,0.5,0.2c0.4,0,0.8,0,1.2-0.2c0.4-0.1,0.8-0.3,1.2-0.5c0.4-0.2,0.8-0.4,1.1-0.7c0.3-0.2,0.6-0.5,0.7-0.9
	c0.2-0.4,0.3-0.8,0.5-1.2c0.2-0.5,0.3-0.9,0.5-1.4c0.2-0.5,0.3-0.9,0.3-1.3c0-0.3,0-0.6,0-0.9c0-0.3-0.2-0.5-0.4-0.7
	c-0.3-0.2-0.5-0.4-0.9-0.6c-0.3-0.2-0.6-0.3-1-0.5c-0.2-0.1-0.5-0.1-0.7-0.2c-0.6,0-1.2,0.1-1.7,0.4c-0.5,0.2-0.9,0.5-1.4,0.9
	c-0.4,0.3-0.7,0.7-0.9,1.1c-0.2,0.3-0.3,0.7-0.4,1.2c0,0.3,0,0.7,0,1C231.5,16.9,231.7,17.1,231.8,17.3z"/>
<path class="st0" d="M248.5,48.1c-0.3,0-0.6,0.1-0.8,0.3c-0.3,0.2-0.7,0.5-1,0.7c-0.4,0.3-0.8,0.6-1.3,1l-1.5,1.3
	c-0.6,0.4-1.2,0.9-2,1.4c-0.8,0.5-1.6,1-2.5,1.4c-0.8,0.4-1.6,0.8-2.5,1c-0.8,0.2-1.7,0.4-2.5,0.4c-0.9,0.1-1.8-0.2-2.5-0.8
	c-0.6-0.5-1.1-1.2-1.4-2c-0.3-0.8-0.5-1.6-0.6-2.5c0-0.9,0-1.8,0-2.7c0-1.7,0.1-3.4,0.5-5c0.4-1.6,0.7-3,1.1-4.3
	c0.4-1.3,0.8-2.5,1.1-3.5c0.3-0.8,0.5-1.6,0.5-2.5c0-0.2-0.1-0.5-0.2-0.7c-0.1-0.3-0.3-0.5-0.6-0.7c-0.3-0.3-0.6-0.5-1-0.6
	c-0.5-0.2-1-0.3-1.5-0.3c-0.5,0-0.9,0.2-1.2,0.5c-0.3,0.3-0.6,0.7-0.8,1.1c-0.2,0.5-0.3,0.9-0.4,1.4c0,0.5,0,0.9,0,1.4
	c-0.1,0.7-0.2,1.4-0.4,2.1c-0.2,0.7-0.3,1.4-0.5,2.2l-2.5,2.5c-1.4,1.4-2.8,2.7-4.2,3.9c-1.7,1.8-3.8,3.1-6.3,3.6
	c-1.4-0.1-2.7-0.8-3.6-2c-0.5-0.6-1-1.3-1.4-2c-0.4-0.7-0.7-1.4-1-2.1c-0.3-0.7-0.6-1.5-1-2.5c-0.3-1-0.7-1.9-1-3
	c-0.4-1.1-0.6-1.7-0.9-2.4c-0.2-0.6-0.5-1.1-0.9-1.7c-0.6-0.9-1.6-1.4-2.7-1.3c-1.7,0.2-3.2,1.1-4.2,2.5c-1.7,1.9-3.1,3.9-4.3,6.1
	c-0.2,0.2-0.4,0.6-0.7,1.3l-1.1,2l-1.1,1.9l-0.6,1.1c-1,1.7-1.7,2.5-2.1,2.5s-0.6-1.5-0.8-4.4c-0.2-1.6-0.3-3-0.5-4.3
	c-0.2-1.3-0.4-2.5-0.7-3.8c-0.2-1.9-1.1-3.7-2.5-5c-0.3-0.2-0.7-0.3-1.1-0.3c-2.3,0.1-4.4,1.2-5.8,3c-0.9,1-1.9,2.3-2.9,3.7
	c-1,1.4-2.1,3.1-3.3,5c-1.2,1.9-2.2,3.4-3.1,4.6c-0.7,0.9-1.4,1.7-2.2,2.5c0.1-1.6,0.3-3.2,0.6-4.8c0.2-1,0.4-2,0.6-3
	s0.4-2.1,0.6-3.1c0.2-1,0.3-2,0.5-3c0.1-0.8,0.1-1.7,0.2-2.5c0-2.9-1.1-4.4-3.2-4.4c-0.5,0-0.9,0.2-1.3,0.5
	c-0.3,0.4-0.5,0.8-0.5,1.3l0,0l-1.6,0.5l-2.3,0.7l-2.3,0.7l-1.9,0.5l-1.1,0.3c-0.6,0-1.2,0.2-1.8,0.3c-0.7,0.1-1.3,0.2-2,0.2
	l-1.9,0.2h-1.9c-0.6-0.1-1.3-0.3-1.7-0.8c-0.7-0.5-1.3-1.1-2-1.7c-0.7-0.7-1.3-1.2-1.9-1.7c-0.4-0.4-0.9-0.7-1.5-0.8
	c-0.3,0-0.6,0-0.9,0.1c-0.2,0-0.4,0-0.6,0c-0.1,0-0.2-0.1-0.3-0.2c-0.2-0.2-0.3-0.4-0.4-0.6c-0.2-0.2-0.3-0.4-0.5-0.5
	c-0.2-0.2-0.4-0.3-0.6-0.4c-0.3-0.1-0.6-0.2-0.9-0.2c-1.1,0-2.2,0.3-3.2,0.8c-1.1,0.6-2.2,1.3-3.1,2.2c-1,1-2,2-2.9,3.1
	c-0.9,1.1-1.7,2.3-2.5,3.5c-0.7,1.1-1.4,2.3-2,3.5c-0.5,1-0.9,2-1.3,3.1c0,0.3-0.2,0.7-0.3,1.2s-0.2,0.9-0.3,1.4s-0.2,1-0.2,1.4
	c0,0.4,0,0.8,0,1.2c0,1.2,0.1,2.4,0.4,3.5c0.2,1.1,0.5,2.1,0.9,3.1c0.4,0.8,1,1.5,1.7,2.1c0.7,0.5,1.5,0.8,2.3,0.8
	c1.3,0,2.7-0.1,4-0.4c1.3-0.2,2.6-0.6,3.9-1.2c1.1-0.5,2.1-1,3.1-1.7c0.9-0.5,1.7-1.2,2.5-1.9c0.7-0.6,1.4-1.3,2-2.1
	c0.6-0.8,1.2-1.6,1.7-2.5c0.3-0.4,0.5-0.8,0.6-1.3c0.2-0.5,0.4-1.1,0.5-1.6s0.3-1.1,0.4-1.7c0.1-0.5,0.1-0.9,0.2-1.4
	c0-0.8-0.1-1.7-0.2-2.5c-0.2-0.8-0.3-1.6-0.5-2.5c0.3,0.2,0.6,0.4,0.9,0.5l1.3,0.4l1.4,0.3c0.3,0.1,0.7,0.1,1.1,0.2
	c0.7,0,1.4,0,2.5-0.1l2.9-0.3c1,0,1.9-0.3,2.8-0.5c0.7-0.1,1.5-0.4,2.2-0.6c0.4-0.2,0.8-0.4,1.1-0.6c0.5-0.3,1-0.6,1.5-0.9
	c0.5-0.4,1-0.7,1.5-1.2c0.4-0.3,0.8-0.7,1.1-1c0,0.9-0.3,1.9-0.5,3.1c-0.2,1.2-0.5,2.5-0.9,4.6c-0.2,1.1-0.4,2-0.5,2.8
	c-0.1,0.9-0.3,1.6-0.4,2.2c-0.1,0.6-0.2,1.3-0.2,2c0,0.7,0,1.3,0,2c0,1.9,0.2,3.8,0.7,5.6c0.3,1.5,1.7,2.6,3.2,2.5
	c0.9,0,1.8-0.5,2.2-1.3c0.3-0.5,0.7-1,1.1-1.7c0.4-0.7,0.9-1.4,1.4-2.3l0.7-1.7l0.9-1.6c1-1.7,2.1-3.5,3.2-5.2
	c1.2-1.8,2.5-3.6,3.9-5.2c1.4-1.7,2.5-2.5,3.3-2.7c0.8,0.8,1.3,1.9,1.3,3.1c0,0.6,0,1.5,0.1,2.7s0,2.5,0,4.2c0,2.4,0.4,4.9,1,7.2
	c0.4,1.3,1.6,2.2,3,2.1c1,0,2.1-0.8,3.3-2.4c1.6-2.2,3.1-4.6,4.4-7c1.8-3.1,3.2-5.4,4.3-6.9c1.1-1.6,2.1-2.3,3-2.3
	c0.6,0,1.4,1,2.2,3l1.3,3c0.4,1,0.8,1.9,1.3,2.9c0.8,1.8,1.7,3.4,2.9,5c0.8,1.3,2.2,2.1,3.7,2.2c1.4-0.1,2.8-0.6,4-1.3
	c0.8-0.5,1.6-0.9,2.2-1.4c0.6-0.4,1.3-0.9,1.9-1.4c1.6-1.4,3.1-2.8,4.5-4.4c0.5-0.5,1-1.1,1.5-1.7c0,0.5-0.2,0.9-0.2,1.3
	c-0.2,1.6-0.3,3.2-0.3,4.8c0,1.3,0.2,2.5,0.5,3.7c0.3,1.2,0.9,2.3,1.6,3.4c0.7,1,1.6,1.8,2.7,2.3c1.2,0.6,2.5,0.9,3.9,0.9
	c1.2,0,2.4-0.1,3.6-0.4c1-0.3,2.1-0.6,3.1-1.1c0.9-0.4,1.7-0.8,2.5-1.3c0.7-0.5,1.3-0.9,1.7-1.2c0.8-0.6,1.5-1.2,2.2-1.9
	c0.6-0.6,1.1-1.3,1.7-1.9c0.4-0.5,0.7-1.1,1.1-1.7c0.2-0.4,0.3-0.8,0.4-1.3c0-0.3-0.1-0.6-0.2-0.8C249.3,48.3,249,48.1,248.5,48.1z
	 M137.8,40.8c-0.2,1.4-0.6,2.8-1.1,4.1c-0.5,1.2-1,2.4-1.7,3.6c-0.6,1.1-1.4,2-2.3,2.9c-0.9,0.8-1.9,1.4-3,1.9
	c-1.1,0.5-2.3,0.7-3.6,0.7c-0.5,0-0.9-0.1-1.3-0.3c-0.8-0.4-1.4-1.1-1.7-1.9c-0.2-0.4-0.3-0.9-0.3-1.4c0-1.3,0.2-2.5,0.5-3.8
	c0.4-1.5,0.8-2.9,1.4-4.3c0.6-1.4,1.2-2.8,2-4.1c0.7-1.1,1.5-2.1,2.5-3l0.9-0.7c0.3-0.2,0.7-0.5,1-0.7c0.3-0.2,0.7-0.4,1.1-0.5
	c0.4-0.1,0.7-0.2,1.1-0.2c0.5,0,1,0.1,1.5,0.3c0.5,0.2,1,0.5,1.5,0.8c0.5,0.3,0.9,0.7,1.3,1.1c0.3,0.4,0.6,0.8,0.8,1.3
	C138.3,38,138.1,39.4,137.8,40.8z"/>
<path class="st0" d="M255.1,12.4c-1.1,0-2.2,1.4-3.3,4.2c-0.5,1.4-1,2.7-1.3,3.9c-0.3,1.2-0.6,2.2-0.7,3.1c0,0.5-0.2,1.1-0.3,1.7
	s-0.2,1.4-0.4,2.5c0,0.5,0,0.9-0.2,1.3c0,0.3-0.1,0.6-0.1,0.9c0,0.2,0,0.5,0,0.7v0.7c0,0.9,0.3,1.7,0.7,2.5c0.5,0.9,1,1.4,1.7,1.4
	c0.6,0.1,1.2-0.2,1.5-0.8c0.3-0.7,0.5-1.4,0.6-2.1c0-0.4,0-0.8,0-1.2c0-0.5,0-1.1,0-1.7c0-0.7,0-1.2,0-1.7s0-0.9,0-1.2
	c0.2-1.3,0.5-2.6,0.9-3.9c0.3-0.9,0.5-1.6,0.6-2.1c0.1-0.5,0.3-0.9,0.3-1.1c0.1-0.3,0.2-0.5,0.3-0.8c0.1-0.4,0.3-0.8,0.6-1.3
	c0.4-0.8,0.7-1.6,0.7-2.5c0-0.6-0.2-1.2-0.5-1.7C256,12.7,255.6,12.5,255.1,12.4z"/>
<path class="st0" d="M281.8,48.7c-0.4-0.6-0.9-1.2-1.5-1.8l-1.7-1.7l-1.9-1.7l-1.9-1.6c-0.6-0.6-1.2-1.1-1.8-1.7
	c-0.6-0.6-1.1-1.3-1.6-2c0.7-0.7,1.4-1.4,2.1-2.1l2.7-2.5c0.6-0.7,1.2-1.4,1.7-2.2c0.4-0.6,0.7-1.3,0.7-2.1c0-1.7-0.7-2.5-2.2-2.5
	c-0.6,0-1.2,0.2-1.7,0.5c-0.7,0.4-1.3,0.8-1.8,1.3c-0.6,0.6-1.3,1.2-1.8,1.9c-0.6,0.7-1.2,1.4-1.7,2.1c-0.3,0.5-0.6,1-0.9,1.5
	c-0.3,0.5-0.6,1.1-0.8,1.7c-0.2,0.6-0.4,1.2-0.5,1.8c-0.1,0.6-0.2,1.1-0.2,1.7c0,1,0.3,2,0.8,2.9c0.6,0.9,1.2,1.8,2,2.5
	c0.8,0.8,1.6,1.5,2.5,2.2c0.9,0.7,1.8,1.4,2.5,2.1c0.8,0.6,1.4,1.3,2,2.1c0.5,0.7,0.8,1.5,0.8,2.3c0,0.8-0.2,1.5-0.5,2.2
	c-0.4,0.9-1,1.7-1.8,2.3c-0.3,0.3-0.6,0.5-1,0.6c-0.3,0.2-0.7,0.3-1,0.5c-0.3,0.1-0.6,0.2-0.9,0.3H272h-0.5h-0.6h-0.6h-0.4
	c-0.5,0.3-0.9,0.6-1.3,1.1c-0.3,0.5-0.5,1.2-0.4,1.8c0,0.7,0.1,1.4,0.5,2c0.6,0.5,1.3,0.8,2.1,0.7c0.9,0,1.7-0.2,2.5-0.5
	c0.9-0.3,1.9-0.8,2.7-1.3c0.9-0.6,1.7-1.3,2.5-2c0.8-0.8,1.6-1.6,2.2-2.5c0.6-0.9,1.2-1.9,1.6-2.9c0.4-1,0.6-2.1,0.6-3.2
	c0-0.7-0.1-1.4-0.4-2.1C282.3,49.8,282.1,49.2,281.8,48.7z"/>
<path class="st0" d="M359.1,15.5c-1.6-1.2-3.4-2.1-5.4-2.5c-1.1-0.3-2.1-0.5-3.1-0.6s-2.1-0.3-3.1-0.4c-1-0.1-2.1-0.1-3.2-0.1H341
	c-1.3,0-3.4,0.2-6,0.5c-1.3,0.2-2.7,0.4-4,0.6c-1.3,0.2-2.5,0.4-3.9,0.7c-2,0.4-3.9,0.9-5.7,1.6c-0.9,0.4-1.8,1-2.5,1.7
	c-0.6,0.7-1,1.6-0.9,2.5c0,0.4,0.1,0.8,0.5,1.1c0.3,0.3,0.7,0.5,1.2,0.5c0.4,0,0.8-0.1,1.1-0.3c3.2-1.1,6.4-2.1,9.7-2.9
	c4.4-0.9,8.8-1.4,13.3-1.4h2.3l2.5,0.2c0.9,0,1.8,0.2,2.7,0.3c0.9,0.1,1.8,0.3,2.7,0.6c1.7,0.5,2.5,1.2,2.5,2
	c-0.2,2.4-1.4,4.7-3.3,6.3c-1.1,1.1-2.3,2.1-3.4,3.1c-1.1,0.9-2.3,1.8-3.6,2.5c-1.9,1.1-3.8,2.2-5.8,3.1s-4.2,1.9-6.7,3l-3.4,1.4
	l-2.5,1.1c0-0.4,0-0.9,0-1.5s0-1.2,0.2-1.8s0.2-1.4,0.3-2.1s0.2-1.4,0.3-2.1c0.1-0.7,0.3-1.4,0.4-2.1c0.1-0.7,0.2-1.3,0.3-1.9
	c0.1-0.6,0.3-1.2,0.5-1.8c0,0,0.2-0.5,0.4-1l0.6-1.8c0.2-0.6,0.4-1.2,0.6-1.7c0.1-0.3,0.2-0.6,0.3-1c0-0.7-0.2-1.4-0.6-2
	c-0.5-0.5-1.1-0.8-1.8-0.7c-0.4,0-0.7,0.1-1.1,0.2c-0.5,0.6-1,1.2-1.4,1.9c-0.4,0.7-0.6,1.4-0.9,2.1c-0.3,0.8-0.5,1.7-0.7,2.5
	c0,0.5-0.2,0.9-0.3,1.3s-0.2,0.7-0.2,1c-0.3,1-0.5,2-0.7,3.1c-0.2,1.1-0.4,2.3-0.6,3.8c-0.1,0.8-0.2,1.5-0.3,2.1
	c0,0.7-0.2,1.3-0.3,1.9c-0.3,2-0.5,3.6-0.6,5c-0.1,1.3-0.1,2.6,0,4v0.9c0,10.1,1.2,15.2,3.5,15.2c0.7,0,1.4-0.2,2-0.7
	c0.5-0.5,0.8-1.2,0.7-1.9c0-0.9,0-1.9,0-3.1c0-1.2-0.2-2.5-0.3-4.1c-0.1-1.6-0.2-2.8-0.3-3.9s0-1.9,0-2.5v-1.1c0-0.7,0-1.1,0.2-1.2
	c2.3-0.7,4.5-1.6,6.8-2.5c2.2-1,4.5-2,6.7-3.2c3.6-1.8,7-3.8,10.3-6.1c2.8-1.8,5.3-4,7.4-6.7c0.3-0.4,0.6-0.9,0.8-1.4
	c0.3-0.6,0.6-1.2,0.9-2c0.5-1.1,0.8-2.2,0.9-3.4C361.5,18.2,360.6,16.5,359.1,15.5z"/>
<path class="st0" d="M391.3,31c-0.8-0.9-1.8-1.7-3-2.3c-1-0.5-2.2-0.8-3.4-0.9c-1.5,0-3,0.2-4.5,0.7c-4,1.2-7.5,3.6-10.2,6.8
	c-0.5,0.6-0.9,1.3-1.3,2c-0.5,0.8-0.9,1.6-1.3,2.5c-0.4,0.9-0.8,1.8-1.2,2.8c-0.4,0.9-0.7,1.9-1,2.9c-0.3,0.9-0.5,1.8-0.7,2.7
	c-0.1,0.8-0.2,1.5-0.3,2.3c0,1,0.2,2.1,0.5,3c0.7,2,2.3,3.7,4.3,4.5c1.2,0.5,2.4,0.8,3.7,0.7c1.2,0,2.4-0.3,3.5-0.7
	c1.4-0.5,2.7-1.1,4-1.9c1.4-0.8,2.7-1.6,4-2.5c1.3-1,2.5-1.9,3.6-2.9c1-0.9,1.9-1.8,2.8-2.8c0.6-0.7,1.2-1.5,1.6-2.4
	c0.3-0.6,0.6-1.2,0.8-1.8c0.2-0.6,0.4-1.2,0.5-1.8c0.1-0.6,0.2-1.2,0.3-1.8c0-0.6,0-1.3,0-2c0-1.3-0.3-2.7-0.8-3.9
	C392.8,33.2,392.2,32,391.3,31z M388.4,42.8c-0.6,1.2-1.4,2.4-2.3,3.4c-0.9,1.1-2,2.1-3.1,3c-1.1,0.9-2.2,1.7-3.4,2.5
	c-1,0.6-2.1,1.2-3.2,1.6c-0.8,0.3-1.6,0.5-2.5,0.6c-0.6,0-1.1-0.1-1.6-0.4c-0.5-0.2-0.9-0.6-1.3-1c-0.3-0.4-0.6-0.8-0.8-1.3
	c-0.2-0.5-0.3-1-0.3-1.5c0-0.9,0.2-1.9,0.5-2.8c0.3-1.1,0.6-2.2,1.1-3.2c0.4-1.1,0.9-2.1,1.4-3c0.4-0.8,0.8-1.5,1.4-2.3
	c0.4-0.5,0.9-1.1,1.5-1.8c0.6-0.7,1.3-1.3,2-1.9c0.7-0.6,1.4-1.1,2.3-1.5c0.7-0.4,1.5-0.6,2.3-0.6c1.9-0.1,3.8,0.5,5.2,1.8
	c1.3,1.3,1.9,3.2,1.8,5C389.1,40.5,388.9,41.7,388.4,42.8z"/>
<path class="st0" d="M427.1,29.4c-0.6-0.3-1.1-0.4-1.7-0.6c-0.6-0.1-1.2-0.1-1.7,0c-1.4,0.2-2.8,0.7-4,1.6c-1.2,0.9-2.3,1.9-3.3,3
	c-1.2,1.4-2.2,2.8-3.1,4.4c-0.8,1.5-1.6,3-2.2,4.6c-0.6,1.6-1.2,3-1.7,4.5c-0.4,1.3-1,2.6-1.6,3.8c0-1.4,0-2.5,0-3.6s0-2,0.2-2.9
	c0.2-0.9,0.2-1.9,0.4-2.9l0.6-3.4c0.2-1.1,0.4-2.2,0.5-3.3c0.1-0.7,0-1.5-0.4-2.1c-0.1-0.2-0.2-0.3-0.4-0.5
	c-0.2-0.2-0.4-0.3-0.6-0.5c-0.2-0.2-0.4-0.3-0.6-0.4c-0.2-0.1-0.4-0.2-0.7-0.2c-0.4,0-0.8,0.1-1.2,0.3c-0.4,0.2-0.8,0.5-1.1,0.8
	c-0.4,0.3-0.6,0.7-0.9,1.2c-0.2,0.4-0.4,0.9-0.4,1.4c0,0.6,0,1.2,0,1.8v1.6c0,0.5,0,1.2,0,1.8s0,1.5,0,2.5c0,1,0,2.1-0.2,3.3
	l-0.3,3.7c0,1.2,0,2.4-0.2,3.5c-0.2,1.1,0,2,0,2.7c0,0.7,0,1.5,0,2.3c0.1,0.8,0.2,1.7,0.4,2.5c0.2,0.7,0.5,1.3,0.9,1.8
	c0.3,0.5,0.9,0.7,1.4,0.7c0.2,0,0.5-0.1,0.7-0.2l1.2-0.4c0.4-0.1,0.7-0.3,1.1-0.5c0.3-0.2,0.5-0.4,0.5-0.5c0.1-0.7,0.3-1.5,0.5-2.3
	c0.2-0.8,0.4-1.6,0.6-2.4c0.2-0.8,0.5-1.6,0.7-2.3c0.2-0.8,0.5-1.5,0.7-2.1l1.4-3.7c0.6-1.3,1.1-2.7,1.7-3.9
	c0.6-1.3,1.2-2.5,1.9-3.7c0.5-1,1.2-1.9,1.9-2.7c0.7-0.7,1.2-1.3,1.7-1.8c0.4-0.5,0.8-0.9,1.3-1.2c0.4-0.3,0.8-0.5,1.3-0.7
	c0.6-0.2,1.1-0.2,1.7-0.2h3c0.2-0.1,0.4-0.2,0.6-0.4c0.3-0.2,0.5-0.5,0.7-0.7c0.2-0.2,0.4-0.5,0.6-0.8c0.1-0.2,0.2-0.4,0.2-0.7
	c-0.1-0.5-0.3-1-0.7-1.4C428.1,30.1,427.6,29.7,427.1,29.4z"/>
<path class="st0" d="M551.6,17.5c0.9,0.2,1.9,0.4,2.9,0.4c1.2,0.1,2.4-0.5,3.1-1.5c0.7-1,1.1-2.3,1.1-3.5c0.1-0.8-0.3-1.6-1-2.1
	c-0.9-0.4-1.8-0.5-2.8-0.5c-0.5,0.1-1,0.3-1.4,0.6c-0.9,0.6-1.7,1.4-2.4,2.3c-0.6,0.9-1,1.9-1,3C550.1,16.9,550.6,17.3,551.6,17.5z"
	/>
<path class="st0" d="M601.2,34.4c-0.5-1.2-1.2-2.3-2.1-3.3c-0.8-0.9-1.8-1.7-3-2.3c-1-0.5-2.2-0.8-3.4-0.9c-1.5,0-3,0.2-4.5,0.7
	c-4,1.2-7.5,3.6-10.2,6.8c-0.5,0.6-0.9,1.3-1.3,2c-0.5,0.8-0.9,1.6-1.3,2.5c-0.2,0.4-0.4,0.9-0.6,1.4s-1,1.1-1.6,1.7
	c-0.6,0.6-1.9,1.9-2.9,2.8s-2,1.8-3.1,2.7c-1.1,0.9-2.1,1.7-3.1,2.5c-1,0.8-2.1,1.4-3.1,2c-1.7,1-3.5,1.6-5.5,1.7
	c-1.6,0-2.5-1.1-3.2-3.4c-0.6-2.1-0.9-4.3-0.9-6.5c0-1,0-2.1,0.2-3.5c0.2-1.3,0.3-2.8,0.6-4.5c0.1-0.9,0.3-1.8,0.4-2.7
	c0.1-0.8,0.2-1.7,0.2-2.5c0-1.1-0.3-1.6-0.9-1.6c-1.1,0-2.2,0.4-3.1,1.2c-0.9,0.6-1.5,1.5-1.9,2.5c-0.2,0.7-0.3,1.3-0.4,2
	c-0.1,0.8-0.3,1.8-0.4,3c-0.1,1.2-0.2,2.3-0.3,3.2c-0.6,0.8-1.2,1.6-1.9,2.4c-1.1,1.2-2.1,2.5-3.2,3.5c-1.1,1-2.1,2.1-3.2,3.1
	c-1,0.9-2,1.7-3.1,2.5c-0.9,0.6-1.8,1.2-2.8,1.7c-0.8,0.4-1.6,0.6-2.5,0.6c-0.5,0-0.9-0.1-1.3-0.3c-0.5-0.3-0.9-0.7-1.3-1.2
	c-0.5-0.7-0.8-1.4-1-2.2c-0.3-1.1-0.4-2.3-0.4-3.5c0-1.6,0-3.4,0.3-5.4s0.4-3.9,0.7-5.9c0.3-2,0.6-3.9,0.9-5.7s0.7-3.5,1-4.8
	c0.1-0.6,0.3-1.1,0.6-1.7c0.3-0.7,0.6-1.4,0.9-2.2c0.3-0.8,0.7-1.6,1.1-2.5s0.7-1.7,1-2.5c0.3-0.8,0.6-1.5,0.8-2.2
	c0.2-0.5,0.3-1,0.3-1.6c0-0.4-0.1-0.8-0.2-1.2c-0.1-0.4-0.3-0.7-0.6-1.1c-0.3-0.3-0.6-0.5-0.9-0.7c-0.4-0.2-0.8-0.3-1.2-0.3
	c-0.6,0-1.2,0.2-1.8,0.6c-0.6,0.4-1.1,1-1.5,1.7c-0.5,0.9-1,1.9-1.3,2.9c-0.4,1.2-0.8,2.5-1.2,4.1c-0.5,2.1-1,4.4-1.5,6.9
	c-0.4,1.7-0.6,3.5-0.9,5.2c-0.7,0.2-1.4,0.4-2.1,0.6l-2.2,0.6c-0.7,0.2-1.6,0.3-2.5,0.5c-1,0.2-1.7,0.2-2.5,0.3
	c-0.9,0.1-2.2,0-3.8,0c-0.9,0-1.8-0.1-2.7-0.2c-0.6-0.1-1.1-0.4-1.6-0.8l-0.8-0.8l-1.1-1.4c-0.4-0.5-0.7-0.9-1.1-1.3
	c-0.3-0.4-0.7-0.7-1-1c-0.4-0.3-0.8-0.5-1.2-0.7c-0.5-0.2-1-0.2-1.5-0.2c-1.1,0-2.3,0.1-3.4,0.4c-0.9,0.2-1.7,0.5-2.5,1
	c-0.7,0.4-1.3,0.9-1.8,1.5c-0.5,0.6-1,1.3-1.4,2c-0.5,0.7-0.9,1.5-1.4,2.3c-0.1,0.1-0.2,0.2-0.2,0.4c-0.6,0-1.2,0.3-1.8,0.3
	c-1.4,0.2-2.7,0.3-3.9,0.4c-1.3,0.1-2.7,0.2-4.2,0.2h-5c-2.1,0-3.2-0.5-3.2-1.3v-1.4c0-1,0.2-2.1,0.4-3.3c0.2-1.2,0.5-2.5,0.8-3.8
	c0.5-2.2,1.1-4.4,2-6.5c0.5-1.1,1.2-2.2,2-3.2c0.5-0.9,1.5-1.4,2.5-1.5c0.8,0,1.3,0.7,1.6,1.9c0.3,1.2,0.5,2.4,0.5,3.6
	c0,1.6-0.2,3.2-0.6,4.7l0,0c0.8,0,1.6-0.7,2.5-2.1c1.4-1.9,2.2-4.2,2.3-6.6c0-1.6-0.6-3.1-1.8-4.1c-1.1-1.1-2.6-1.7-4.1-1.7
	c-1.7,0.1-3.4,0.8-4.6,2c-1.4,1.3-2.5,2.8-3.4,4.5c-0.6,1.1-1.1,2.3-1.6,3.5c-0.5,1.2-0.8,2.4-1.1,3.6c-0.3,1.2-0.5,2.5-0.8,4.4
	c-0.1,0.7-0.2,1.3-0.3,1.9l-0.6,0.1c-0.5,0.1-1.1,0.3-1.8,0.4l-2.2,0.4l-2.5,0.4l-3.2,0.4l-2.7,0.3l-2.5,0.2h-2.7
	c-0.6,0.1-1.1-0.3-1.2-0.8c0-0.1,0-0.2,0-0.3c0.1-1.4,0.4-2.8,0.7-4.2c0.5-2.1,1.3-4.8,2.3-8c0.4-1.2,0.7-2.5,0.7-3.7
	c0-1.8-0.8-2.5-2.4-2.5c-1,0-2,0.7-2.3,1.7c-0.2,0.6-0.4,1.2-0.6,1.8c-0.2,0.6-0.3,1.3-0.4,2l-0.4,2c-0.1,0.7-0.3,1.3-0.5,1.9
	l-0.5,2.1c-0.2,0.8-0.4,1.6-0.7,2.5c-0.2,0.9-0.4,1.6-0.7,2.5s-0.4,1.6-0.5,2.2c-0.1,0.3-0.2,0.7-0.4,1c-0.1,0.2-0.3,0.4-0.5,0.5
	l-0.5,0.2h-0.4h-0.7h-0.9H437h-0.9c-0.4,0-0.8,0.1-1.1,0.2c-0.4,0.1-0.8,0.3-1.2,0.5c-0.3,0.2-0.7,0.4-0.9,0.7
	c-0.2,0.2-0.4,0.5-0.4,0.8c0,0.4,0.1,0.7,0.2,1.1c0.1,0.4,0.3,0.7,0.6,1c0.2,0.3,0.5,0.5,0.9,0.7c0.3,0.2,0.7,0.3,1.1,0.3
	c0.3,0,0.5,0,0.8,0l0.9-0.2l0.9-0.2h0.8c0.3,0,0.6,0.1,0.9,0.3c0.2,0.2,0.4,0.5,0.4,0.8c0,0,0,0.3,0,0.7s-0.2,0.9-0.3,1.5
	s-0.2,1.2-0.3,1.8s-0.2,1.2-0.3,1.7c-0.3,1.2-0.5,2.5-0.8,3.7c-0.3,1.2-0.6,2.5-0.8,3.6c-0.3,1.1-0.5,2.3-0.7,3.4
	c-0.2,1-0.2,2.1-0.3,3.2c0,0.7,0.1,1.4,0.3,2.2c0.2,0.7,0.5,1.3,0.8,1.9c0.3,0.5,0.8,1,1.3,1.3c0.5,0.3,1.1,0.5,1.7,0.5
	c0.4,0,0.8-0.1,1.2-0.2c0.5-0.1,0.9-0.3,1.3-0.5c0.4-0.2,0.7-0.4,1-0.7c0.3-0.2,0.4-0.5,0.4-0.9c0-0.4-0.1-0.8-0.4-1.1
	c-0.3-0.3-0.6-0.5-0.9-0.8c-0.4-0.3-0.8-0.6-1.1-1.1c-0.3-0.6-0.5-1.3-0.4-2c0-0.6,0.1-1.1,0.2-1.7c0-0.8,0.2-1.6,0.4-2.5
	s0.3-1.7,0.4-2.5c0.1-0.8,0.3-1.4,0.4-1.8c0.3-1.7,0.8-3.5,1.3-5.2c0.5-1.8,1-3.6,1.4-5.5c0.6-0.2,1.3-0.4,1.9-0.5
	c0.8,0,1.7-0.3,2.5-0.4l2.9-0.3l2.9-0.3c0.8,0,1.7-0.2,2.5-0.3c0.8-0.2,1.8-0.3,2.7-0.5c0.9-0.2,1.8-0.4,2.7-0.7l0.7-0.3
	c-0.3,0.4-0.6,0.8-1,1.3c-0.8,0.8-1.4,1.7-1.7,2.8c0,0.3,0.1,0.6,0.3,0.9c0.2,0.3,0.5,0.5,0.8,0.8c0.3,0.2,0.5,0.5,0.8,0.8
	c0.2,0.2,0.3,0.6,0.3,0.9c0,1-0.1,2-0.2,2.9c0,1.1-0.2,2-0.3,2.7c0,1.3-0.3,2.5-0.4,3.7s-0.3,2.5-0.5,3.8c-0.2,1.3-0.4,2.6-0.7,4
	c-0.3,1.4-0.5,2.8-0.8,4.4c-0.2,0.8-0.3,1.6-0.5,2.3c-0.2,0.7-0.4,1.4-0.7,2.1c-0.3,0.6-0.6,1.2-1,1.7c-0.4,0.5-0.8,0.9-1.3,1.2
	c-0.5,0-1-0.1-1.5-0.2c-0.5-0.1-1-0.2-1.5-0.2c-0.3,0-0.6,0.1-0.8,0.4c-0.2,0.3-0.4,0.6-0.6,0.9c-0.2,0.4-0.3,0.7-0.4,1.1
	c-0.1,0.3-0.1,0.6-0.2,1c0,0.7,0.5,1.3,1.2,1.6c0.6,0.4,1.4,0.6,2.1,0.6c2,0,4-0.9,5.3-2.5c1.6-1.7,2.8-3.7,3.6-5.9
	c0.7-2,1.2-4,1.5-6.1c0.4-2.4,0.6-4.4,0.9-6.1c0.2-1.7,0.4-3.3,0.6-4.8c0-0.7,0.2-1.5,0.3-2.3c0.1-0.8,0.2-1.7,0.3-2.5
	c0.1-0.8,0.2-1.7,0.3-2.5c0.1-0.8,0.2-1.7,0.4-2.5c1.3,0,2.8,0,4.3-0.1c1.6-0.1,3.2-0.2,5-0.4c2.5-0.3,4.9-0.6,6.9-1l-0.8,1.5
	c-0.6,1.1-1.1,2.3-1.6,3.5c-0.5,1.2-0.9,2.3-1.2,3.6c-0.3,1.2-0.5,2.5-0.5,3.7c0,1.2,0.1,2.4,0.3,3.6c0.2,1,0.6,2,1.2,2.9
	c0.6,0.8,1.3,1.5,2.2,2c1.1,0.5,2.3,0.8,3.5,0.7c0.9,0,1.8-0.1,2.7-0.4c1-0.2,2-0.6,2.9-1c1-0.4,2-0.9,3-1.5c1-0.5,1.9-1.1,2.8-1.8
	c0.9-0.6,1.7-1.2,2.5-1.9c0.7-0.6,1.3-1.3,1.8-2c0.3-0.4,0.6-0.9,0.9-1.4c0.2-0.5,0.5-1.1,0.6-1.7c0.2-0.6,0.3-1.2,0.4-1.8
	c0.1-0.5,0.1-1.1,0.2-1.7V44c0-0.6,0-1,0-1.4s0-0.7,0-0.9c0-0.2,0-0.4,0.1-0.7c0.1-0.7,0.4-1.3,0.8-1.8c1.1-0.3,2.2-0.4,3.4-0.4
	c2.1,0,3.3-0.2,3.7-0.2c0.8-0.1,1.7-0.2,2.5-0.5c0.9-0.2,1.9-0.5,2.8-0.8s1.4-0.5,2-0.8c-0.3,2-0.6,4-0.8,5.9c-0.3,2.5-0.4,5-0.4,7
	c-0.2,3,0.5,6,2,8.6c1.1,1.9,3.2,3,5.4,2.9c1.6,0,3.1-0.4,4.6-1.1c1.8-0.8,3.5-1.9,5-3.1c1.9-1.5,3.6-3.2,5.2-5
	c1.3-1.4,2.5-3,3.9-4.7c0.1,1.4,0.3,2.8,0.6,4.2c0.4,2.3,1.4,4.5,2.9,6.3c1.5,1.7,3.7,2.7,6,2.5c2.9-0.2,5.7-1.4,8-3.3
	c1.5-1.1,2.9-2.2,4.3-3.4c1.3-1.2,2.6-2.4,3.8-3.7c0.3-0.3,0.6-0.7,0.9-1c-0.1,0.6-0.2,1.2-0.2,1.8c0,1,0.2,2.1,0.5,3
	c0.3,1,0.9,1.9,1.6,2.7c0.7,0.8,1.6,1.4,2.7,1.9c1.2,0.5,2.4,0.8,3.7,0.7c1.2,0,2.4-0.3,3.5-0.7c1.4-0.5,2.7-1.1,4-1.9
	c1.4-0.8,2.7-1.6,4-2.5c1.3-1,2.5-1.9,3.6-2.9c1-0.9,1.9-1.8,2.8-2.8c0.6-0.7,1.2-1.5,1.6-2.4c0.3-0.6,0.5-1.2,0.8-1.8
	c0.2-0.6,0.4-1.2,0.5-1.8c0.1-0.6,0.2-1.2,0.3-1.8c0-0.6,0-1.3,0-2C601.8,37.2,601.6,35.8,601.2,34.4z M501.5,43.4
	c-0.1,1-0.2,2-0.5,3c-0.3,1-0.7,1.9-1.3,2.7c-0.7,1.1-1.6,2.1-2.5,3c-0.5,0.4-1,0.9-1.5,1.2c-0.7,0.5-1.4,0.9-2.1,1.3
	c-0.7,0.4-1.4,0.7-2.2,1c-0.6,0.2-1.2,0.4-1.8,0.4c-0.6,0-1.1-0.1-1.7-0.3c-0.4-0.2-0.9-0.4-1.2-0.7c-0.3-0.3-0.6-0.6-0.8-1
	c-0.2-0.4-0.3-0.7-0.3-1.1c0-1,0.1-2,0.3-2.9c0.3-1.1,0.6-2.1,1-3.2c0.3-1.1,0.7-2.2,1.1-3.2c0.4-1.1,0.8-2,1.3-2.9
	c0.5-1.1,1.1-2.1,1.7-3.1c0.6-0.9,1.2-1.7,1.9-2.5c1-1.3,2.6-2.1,4.3-2.2c0.5,0,0.9,0.1,1.3,0.4c0.3,0.4,0.6,0.8,0.9,1.3
	c0.2,0.4,0.5,0.9,0.9,1.2c0.3,0.3,0.5,0.5,0.8,0.8c0.2,0.3,0.4,0.6,0.5,1c0.2,0.6,0.2,1.3,0.2,1.9C501.6,41,501.5,42.3,501.5,43.4z
	 M596.2,42.8c-0.6,1.2-1.4,2.4-2.3,3.4c-0.9,1.1-2,2.1-3.1,3c-1.1,0.9-2.2,1.7-3.4,2.5c-1,0.6-2.1,1.2-3.2,1.6
	c-0.8,0.3-1.6,0.5-2.5,0.6c-0.6,0-1.1-0.1-1.6-0.4c-0.5-0.2-0.9-0.6-1.3-1c-0.3-0.4-0.6-0.8-0.8-1.3c-0.2-0.5-0.3-1-0.3-1.5
	c0-0.9,0.2-1.9,0.4-2.8c0.3-1.1,0.6-2.2,1.1-3.2c0.4-1,0.9-2,1.4-3c0.4-0.8,0.8-1.5,1.3-2.3c0.4-0.5,0.9-1.1,1.5-1.8
	c0.6-0.7,1.3-1.3,2-1.9c0.7-0.6,1.5-1.1,2.3-1.5c0.7-0.4,1.5-0.6,2.3-0.6c1.9-0.1,3.8,0.5,5.2,1.8c1.3,1.3,1.9,3.2,1.8,5
	C597,40.5,596.7,41.7,596.2,42.8z"/>
</svg>
