<?xml version="1.0" encoding="utf-8"?>
<!-- Generator: Adobe Illustrator 25.2.3, SVG Export Plug-In . SVG Version: 6.00 Build 0)  -->
<svg version="1.1" id="レイヤー_1" xmlns="http://www.w3.org/2000/svg" xmlns:xlink="http://www.w3.org/1999/xlink" x="0px"
	 y="0px" viewBox="0 0 4800 3496" style="enable-background:new 0 0 4800 3496;" xml:space="preserve">
<style type="text/css">
	.st0{fill:none;}
	.st1{opacity:0.24;}
	.st2{fill:#E6E3DE;}
	.st3{opacity:0.57;}
	.st4{opacity:0.37;fill:#82A5B7;enable-background:new    ;}
	.st5{fill:#FFFFFF;}
</style>
<g id="背景枠">
	<rect x="652" y="113.5" class="st0" width="3496" height="2362"/>
</g>
<g id="泡">
	<g class="st1">
		<circle class="st2" cx="3412" cy="2700.8" r="12.1"/>
		<circle class="st2" cx="3465.6" cy="2585.3" r="19.8"/>
		<circle class="st2" cx="3450.9" cy="2651.5" r="7.4"/>
	</g>
</g>
<g id="水紋">
	<g class="st3">
		<path class="st2" d="M5064.4,1638.8c22.7,48.3,40.7,98.8,53.6,150.6c12.9,51.8,20.7,104.8,23.1,158.2
			c2.4,53.3-0.4,106.8-8.5,159.5c-8,52.8-21.3,104.6-39.7,154.6c-9.2,25-19.6,49.5-31.1,73.6c-11.6,24-24.1,47.5-37.8,70.3
			c-82.6,138.1-204.4,248.4-349.9,317.1c-48.2,22.8-98.4,40.9-150.1,54c-51.7,13.1-104.5,21-157.8,23.7
			c-450,22.2-832.8-324.5-855-774.5s324.5-832.8,774.5-855C4616.2,1154.5,4923.8,1339.4,5064.4,1638.8L5064.4,1638.8z
			 M5059.9,1640.9c-22.7-48-50.1-93.6-81.7-136.3c-63.4-85.5-143.1-157.6-234.4-212.1c-137.5-82.2-296.2-121.8-456.1-114
			c-52.9,2.6-105.5,10.5-156.9,23.4c-103,26-199.9,72-285.3,135.2c-85.3,63.2-157.2,142.7-211.6,233.9
			c-27.1,45.5-49.8,93.5-67.6,143.3c-8.9,24.9-16.6,50.2-23.1,75.9c-6.5,25.7-11.7,51.6-15.7,77.8c-16,105-11.1,212.1,14.5,315.2
			c25.6,103.2,71.2,200.3,134.1,286c63,85.8,142.4,158.2,233.5,213.2c383,231.7,881.2,109.1,1112.9-273.9c0.6-0.9,1.1-1.9,1.7-2.8
			c13.7-22.8,26.2-46.3,37.5-70.5c11.3-24.1,21.3-48.8,30.1-73.9c17.5-50.2,30.2-102,38-154.6
			C5153,1947.9,5128.7,1785.8,5059.9,1640.9L5059.9,1640.9z"/>
	</g>
	<g class="st3">
		<path class="st2" d="M3262.8,1526.1c-22.9-25.9-43.3-54-60.8-83.9c-107.7-184.3-93.7-415.3,35.6-585.2
			c41.9-55,94.2-101.2,153.9-136.2c151.7-88.4,337.4-95.4,495.3-18.5c93.2,45.7,171,117.6,223.8,206.9c35,59.4,58,125.1,67.6,193.4
			c2.4,17,4,34.1,4.7,51.4c0.7,17.2,0.6,34.4-0.3,51.6c-16.1,290.9-265,513.7-555.9,497.6c-34.6-1.9-68.9-7.2-102.5-15.9
			c-33.6-8.6-66.2-20.7-97.4-35.9c-15.6-7.6-30.7-16-45.5-25.1c-14.8-9.1-29-19-42.7-29.5
			C3311.1,1575.8,3285.7,1552.1,3262.8,1526.1z M3268.8,1520.8c22.7,25.4,47.9,48.5,75.2,69c13.6,10.2,27.7,19.7,42.3,28.5
			c14.6,8.8,29.5,16.9,44.9,24.3c61.5,29.5,128.2,46.9,196.3,51.2c173.6,10.6,341.1-65.9,446.8-204c20.8-27.1,38.8-56.3,53.9-87
			c61-124.7,70-268.5,24.9-399.8c-11.2-32.5-25.6-63.8-42.9-93.4c-34.8-59.4-81-111.4-135.9-153c-27.4-20.8-56.8-38.8-87.8-53.7
			c-125.2-60.1-269.1-68.2-400.3-22.5c-32.4,11.3-63.5,25.8-93,43.2c-59.1,35-110.7,81.1-152.1,135.9
			c-127,168.5-139.9,397-32.6,578.7C3225.8,1467.8,3246,1495.4,3268.8,1520.8z"/>
	</g>
</g>
<g id="影">
	<path class="st4" d="M3826.1,2062c12.9,9.6,27.3,20.4,42.6,31.6l0.1,0.1c3.6,3.2,20.2,15,37.4,26.7c22.8,15.8,45.9,30.8,67.1,42.4
		c34.7,21.3,90.8,54,153.9,78.9c31.5,12.4,59.2,22.5,83.1,30.6c-5.8,6.3-12.8,14.3-14.2,18.1c-2.5,6.6-1.3,8.6-1.6,13.2
		s1,9.2,5.7,10.3s17.2-4.2,29.2-10.7c11.8-6.4,11.5-7.8,24.6-17.2c21.3,6,37.1,9.3,46.8,10.1c40,3.1,76.3-3.5,76.3-3.5
		c21.2,0.4,40.4,1.2,48.4-2.4s17.9-16,5.8-31.5s-57-43.3-98.5-66.1c-9.5-5.3-23.5-11.8-39.9-18.8c-2-3.6-4.2-7.3-6.9-11.3
		c-9.5-14.2-8.5-15.2-17.4-25.6s-18.8-19.7-23.5-20.5s-7.6,3.2-9,7.6s-3.2,5.8-3.1,12.9c0,2.9,2,9.1,4.3,15.3
		c-46.4-16.7-97.5-31.7-131.1-35.1c-62.5-6.3-110.1-5.4-143.3-10.4c-30.6-4.6-40-8.3-57.8-20.1l-0.1-0.2
		c-8.6-5.5-16.8-11.6-24.5-18.3c-10.7-9.7-25.6-20.1-44.3-34.9s-35.2-19.7-36.7-20.2s-6.4-1.4-10.1-0.4s-29.4,0.5-30.8,1.8
		S3800.5,2042.9,3826.1,2062z"/>
	<path class="st4" d="M3784.7,1006.3c7.7,14,16.4,29.9,25.6,46.4l0.1,0.1c2,4.5,12.1,22,22.9,39.8c14.1,23.8,28.9,47.1,43.5,66.4
		c22.8,33.8,60.2,86.8,107.2,135.7c23.5,24.4,44.5,45.2,62.9,62.3c-7.9,3.3-17.6,7.7-20.4,10.6c-5,4.9-4.8,7.3-6.9,11.3
		s-2.9,8.8,0.9,11.7s17.4,3.3,31,2.4c13.4-0.9,13.7-2.3,29.5-5.4c16.8,14.3,29.8,23.9,38.3,28.6c35.1,19.4,70.9,28.5,70.9,28.5
		c19.2,9.2,36.3,17.9,45,17.9s22.9-7.1,18.4-26.3s-33.9-63.1-62.1-101c-6.5-8.8-16.5-20.5-28.5-33.7c-0.3-4.1-0.8-8.4-1.5-13.2
		c-2.7-16.8-1.4-17.4-5.2-30.5s-8.9-25.8-12.9-28.4s-8.3-0.2-11.3,3.2s-5.3,4-8.2,10.4c-1.2,2.7-2,9.1-2.4,15.7
		c-35.3-34.5-75.5-69.3-104.7-86.3c-54.2-31.7-98-50.6-126.1-69c-25.9-16.9-32.9-24.1-44.2-42.3v-0.2c-5.5-8.6-10.5-17.5-14.7-26.8
		c-5.7-13.2-15-28.9-25.8-50.1s-23.8-32.5-24.9-33.7s-5.3-4-9-4.5s-27-11.8-28.8-11.2S3769.2,978.3,3784.7,1006.3z"/>
</g>
<g id="鯉">
	<path class="st5" d="M3904.5,1974.2c12.9,9.6,27.3,20.4,42.6,31.6c0,0,0.1,0.1,0.1,0.1c3.7,3.2,20.2,15,37.4,26.7
		c22.8,15.8,45.9,30.8,67.1,42.4c34.7,21.3,90.8,54,153.9,78.9c31.5,12.4,59.2,22.5,83.1,30.6c-5.8,6.3-12.8,14.3-14.2,18.1
		c-2.5,6.6-1.3,8.6-1.6,13.2s1,9.2,5.7,10.3s17.2-4.2,29.2-10.7c11.8-6.4,11.5-7.8,24.6-17.2c21.3,6,37.1,9.3,46.8,10.1
		c40,3.1,76.3-3.5,76.3-3.5c21.2,0.4,40.4,1.2,48.4-2.4s17.9-16,5.8-31.5s-57-43.3-98.5-66.1c-9.5-5.3-23.5-11.8-39.9-18.8
		c-2-3.6-4.2-7.3-6.9-11.3c-9.5-14.2-8.5-15.2-17.4-25.6s-18.8-19.7-23.5-20.4s-7.6,3.2-9,7.6s-3.2,5.8-3.1,12.9
		c0,2.9,2,9.1,4.3,15.3c-46.4-16.7-97.5-31.7-131.1-35.1c-62.5-6.3-110.1-5.4-143.3-10.4c-30.6-4.6-40-8.3-57.8-20.1l-0.1-0.2
		c-8.6-5.5-16.8-11.6-24.4-18.3c-10.7-9.7-25.6-20.1-44.3-34.9s-35.2-19.7-36.7-20.2s-6.4-1.5-10.1-0.4s-29.4,0.5-30.8,1.8
		S3878.8,1955.2,3904.5,1974.2z"/>
	<path class="st5" d="M3892.4,959c7.7,14,16.4,29.9,25.6,46.4v0.1c2,4.5,12.1,22,22.9,39.8c14.2,23.8,28.9,47.1,43.5,66.4
		c22.8,33.8,60.2,86.8,107.3,135.7c23.5,24.4,44.5,45.1,62.9,62.3c-7.9,3.3-17.5,7.7-20.4,10.5c-5,4.9-4.8,7.3-6.9,11.3
		s-2.9,8.8,0.9,11.7s17.4,3.3,31,2.4c13.4-0.9,13.7-2.3,29.5-5.4c16.9,14.3,29.9,23.9,38.4,28.6c35.1,19.4,70.9,28.5,70.9,28.5
		c19.2,9.2,36.2,17.9,45,17.9s22.9-7.1,18.4-26.3s-33.9-63.1-62.1-101c-6.5-8.8-16.5-20.5-28.5-33.7c-0.3-4.1-0.8-8.4-1.5-13.2
		c-2.7-16.8-1.4-17.4-5.2-30.6s-8.9-25.8-12.9-28.4s-8.3-0.2-11.3,3.2s-5.3,4-8.2,10.4c-1.2,2.7-2,9.1-2.4,15.7
		c-35.3-34.5-75.5-69.3-104.7-86.4c-54.2-31.7-97.9-50.6-126.1-69c-25.9-16.9-32.9-24.1-44.2-42.3v-0.2
		c-5.6-8.6-10.5-17.5-14.7-26.8c-5.7-13.2-15-28.9-25.8-50.1s-23.8-32.5-24.9-33.6s-5.3-4-9-4.5s-27-11.7-28.8-11.2
		S3876.9,931,3892.4,959z"/>
</g>
<g id="模様">
	<path class="st2" d="M4464,2163.9c-4-13.1-12.8-24.1-24.6-31c-19.7-11.2-39-34-62.5-37.9c-13.4-2.2-23.1,3.4-24.5,1.8
		c-3.1-3.8-28.5-0.6-28.5-0.6s-23.8-0.9-30.9-18.9c-3.8-9.7-12-6.3-22.5-0.4c-3.8-5.7-8.3-10.9-13.5-15.4
		c-13.4-12.1-25.9-3.4-45.9-8.1s-7.6,10.4-3.4,18.2c3.2,5.8,12.2,15.9,26.5,20.8c-18.2,5.9-10.6,21.8-3,31.1
		c8.2,10.1,53.1,50.5,79.5,52.7c5.2,0.4,11,0.9,16.8,1.3c0.5,0.4,0.9,0.8,1.5,1.3c25.6,21.1,66.5,17.9,87.1,15.7
		S4456.3,2167.4,4464,2163.9z"/>
	<path class="st2" d="M4116.7,2106.8c23.4,16.6,60.6,37.3,71.5,29.2s-9.1-28.3,1.3-36.1l-1.8-9c0,0-16.6-10.9-29.1-13.3
		s-32.3,6.8-36.9-4.9s-22.1-2.2-43.7,1.4S4093.3,2090.2,4116.7,2106.8z"/>
	<path class="st2" d="M4021,2055.8c0,0,45.1-19.4,69-33c-18.7-1-34.9-2-48.6-4.1c-19.5-3-30.4-5.5-40.4-10.1l-1.8-0.1l-9.2,10.7
		l-9.1,4.3L4021,2055.8z"/>
	<path class="st2" d="M4322.6,1363.9c1.8-13.6-1.6-27.3-9.5-38.4c-13.2-18.4-21.4-47.1-41.1-60.4c-11.2-7.6-22.5-6.5-23-8.5
		c-1.2-4.7-25.7-12.3-25.7-12.3s-21.3-10.7-20.2-30c0.6-10.4-8.3-10.7-20.3-9.7c-1.1-6.8-3-13.4-5.9-19.6
		c-7.2-16.6-22.1-13.8-38.4-26.4s-11.2,6.3-10.6,15.1c0.5,6.6,4.5,19.6,15.5,29.9c-19-2.2-18.7,15.4-15.6,27.1
		c3.3,12.6,27.4,68,50.5,81c4.6,2.6,9.6,5.3,14.7,8.2c0.2,0.6,0.5,1.1,0.8,1.8c14.6,29.8,53,43.8,72.7,50.5
		S4314.2,1363.8,4322.6,1363.9z"/>
	<path class="st2" d="M4030.4,1167.7c14.4,24.8,39.7,59.1,52.9,56.2s3.5-29.5,16.2-32.3l2.1-9c0,0-10.6-16.8-20.9-24.2
		s-32.2-7.2-31.6-19.8s-19.2-11.2-40.3-16.9S4016,1142.9,4030.4,1167.7z"/>
	<path class="st2" d="M3964.6,1081.5c0,0,49.1,1.1,76.4-1.4c-16.6-8.7-30.9-16.3-42.5-23.9c-16.5-10.8-25.4-17.6-32.5-25.9l-1.6-0.9
		l-12.8,5.9l-10.1,0.1L3964.6,1081.5z"/>
</g>
</svg>
