<?xml version="1.0" encoding="utf-8"?>
<!-- Generator: Adobe Illustrator 25.2.3, SVG Export Plug-In . SVG Version: 6.00 Build 0)  -->
<svg version="1.1" id="レイヤー_1" xmlns="http://www.w3.org/2000/svg" xmlns:xlink="http://www.w3.org/1999/xlink" x="0px"
	 y="0px" viewBox="0 0 24 24" style="enable-background:new 0 0 24 24;" xml:space="preserve">
<style type="text/css">
	.st0{fill:none;stroke:#FFFFFF;}
</style>
<path class="st0" d="M14,20.4v-5.8c0-0.3,0.3-0.6,0.6-0.6h5.8c0.3,0,0.6,0.3,0.6,0.6v5.8c0,0.3-0.3,0.6-0.6,0.6h-5.8
	C14.3,21,14,20.7,14,20.4z"/>
<path class="st0" d="M3,20.4v-5.8C3,14.3,3.3,14,3.6,14h5.8c0.3,0,0.6,0.3,0.6,0.6v5.8c0,0.3-0.3,0.6-0.6,0.6H3.6
	C3.3,21,3,20.7,3,20.4z"/>
<path class="st0" d="M14,9.4V3.6C14,3.3,14.3,3,14.6,3h5.8C20.7,3,21,3.3,21,3.6v5.8c0,0.3-0.3,0.6-0.6,0.6h-5.8
	C14.3,10,14,9.7,14,9.4z"/>
<path class="st0" d="M3,9.4V3.6C3,3.3,3.3,3,3.6,3h5.8C9.7,3,10,3.3,10,3.6v5.8C10,9.7,9.7,10,9.4,10H3.6C3.3,10,3,9.7,3,9.4z"/>
</svg>
