<?xml version="1.0" encoding="utf-8"?>
<!-- Generator: Adobe Illustrator 25.3.1, SVG Export Plug-In . SVG Version: 6.00 Build 0)  -->
<svg version="1.1" id="nishikigoi_1_" xmlns="http://www.w3.org/2000/svg" xmlns:xlink="http://www.w3.org/1999/xlink" x="0px"
	 y="0px" viewBox="0 0 4800 3496" style="enable-background:new 0 0 4800 3496;" xml:space="preserve">
<style type="text/css">
	.st0{opacity:0.57;fill:#FFFFFF;enable-background:new    ;}
</style>
<path class="st0" d="M1018.7,1516.8c45.4,97.2,71.9,203.2,76.3,310.3c2.3,53.5-0.8,107.1-9.1,160c-8.1,52.9-21.9,104.7-41,154.7
	c-9.5,24.9-20.2,49.4-31.9,73.3s-24.4,47.4-38,70.2c-27.4,45.7-59.2,88.7-95,128.2c-71.7,79.2-158.3,143.5-254.8,189.4
	c-48.2,22.9-98.4,41.2-150.1,54.4s-104.7,21.4-158,24.2c-26.7,1.4-53.4,1.6-80.1,0.4c-26.7-1.2-53.3-3.7-79.8-7.4
	c-160.3-22.8-310.2-92.5-431-200.2c-40.1-35.8-76.6-75.5-108.9-118.5c-32.3-43.1-60.4-89.2-83.7-137.7
	c-23.4-48.6-41.9-99.4-55.4-151.6c-13.5-52.3-21.7-105.8-24.7-159.7c-2.9-54-0.4-108.1,7.3-161.6c7.7-53.6,20.7-106.2,39-157.1
	c36.8-102,93.4-195.7,166.5-275.8c36.5-39.9,76.8-76.1,120.3-108.1c87.2-64,186.1-110.3,291.2-136.4c158-39.1,324.1-30.2,477,25.4
	c50.6,18.4,99.3,41.6,145.3,69.4s89.2,60.1,128.9,96.3c39.7,36.2,75.7,76.3,107.5,119.7C968.5,1421.8,995.9,1468.1,1018.7,1516.8z
	 M1007.3,1522.2c-22.7-47.7-50.1-93.1-81.6-135.4c-63.2-84.8-142.6-156.3-233.6-210.4c-136.7-81.3-294.5-120.3-453.3-112.3
	c-52.5,2.7-104.7,10.6-155.7,23.6c-102.1,26-198.2,71.7-282.7,134.6c-84.4,62.8-155.6,141.8-209.3,232.2
	c-26.8,45.1-49.1,92.7-66.8,142.1c-17.7,49.4-30.6,100.3-38.7,152.1c-16.2,104-11.6,210.2,13.3,312.5c12.5,51.1,29.9,100.9,52,148.6
	c22.2,47.8,48.9,93.4,79.9,136c31,42.7,66.2,82.2,105,117.9c157.8,145.2,366.9,221.8,581.2,212.9c53.1-2.2,105.8-9.8,157.4-22.4
	c103.6-25.5,201.2-71.2,287.2-134.4c42.9-31.6,82.5-67.3,118.4-106.7c35.8-39.4,67.6-82.3,95-128c13.7-22.8,26.1-46.4,37.2-70.6
	c11-24.2,20.8-48.9,29.3-74.1c8.4-25.2,15.7-50.7,21.8-76.5c6.1-25.8,11.2-51.8,14.9-78.1c7.5-52.4,9.8-105.5,7-158.4
	c-2.8-52.8-10.9-105.3-23.9-156.5C1048.1,1619.8,1030.1,1569.9,1007.3,1522.2z"/>
</svg>
