<?xml version="1.0" encoding="utf-8"?>
<!-- Generator: Adobe Illustrator 25.3.1, SVG Export Plug-In . SVG Version: 6.00 Build 0)  -->
<svg version="1.1" id="nishikigoi_1_" xmlns="http://www.w3.org/2000/svg" xmlns:xlink="http://www.w3.org/1999/xlink" x="0px"
	 y="0px" viewBox="0 0 4800 3496" style="enable-background:new 0 0 4800 3496;" xml:space="preserve">
<style type="text/css">
	.st0{opacity:0.57;fill:#FFFFFF;enable-background:new    ;}
</style>
<path class="st0" d="M5143.8,1485c-37.9,25.5-78.3,47.1-120.6,64.3c-42.3,17.2-86.3,30-131.2,38.1c-44.9,8.1-90.6,11.5-136.2,10.3
	l-8.5-0.3c-2.9-0.1-5.7-0.2-8.5-0.4l-8.5-0.5l-4.3-0.2l-4.3-0.3c-11.3-0.9-22.7-2-34-3.5c-22.6-2.9-45-7-67.2-12.2
	s-44-11.4-65.6-18.7l-8.1-2.7l-8-2.9l-8-2.9l-8-3.1l-8-3l-7.9-3.2l-7.9-3.2l-7.8-3.4c-83.6-36.4-159.4-88.5-223.6-153.3
	c-32-32.3-61-67.5-86.6-105.1c-51.1-75.2-88.5-159.9-108.7-248.7c-10.2-44.4-16.1-89.8-17.7-135.3c-1.6-45.6,1.2-91.2,8.4-136.2
	c7.2-45.1,18.7-89.4,34.6-132.2c15.9-42.9,36-84,60.2-122.8c98.4-157.6,258.3-266.8,440.9-301c90.5-16.8,183.5-15.2,273.3,4.8
	c89.8,20.1,174.8,57.4,250.5,109.7c37.7,26,72.9,55.6,105.1,88.3c64.4,65.4,116.2,142.2,152.6,226.5c18.2,42,32.4,85.7,42.3,130.4
	c20,89.6,22.6,182.1,7.7,272.7c-7.5,45.1-19.4,89.4-35.5,132.2c-16.2,42.8-36.6,83.9-61.1,122.5
	C5284.5,1367.3,5219.9,1433.8,5143.8,1485z M5140.1,1479.6c75.1-51,138.7-117,186.9-193.8c24-38.3,44.1-79,59.9-121.3
	s27.4-86.2,34.6-130.8c14.4-89.4,11.4-180.8-8.7-269.1c-10-44-24.2-87-42.3-128.4c-36.3-82.9-87.6-158.3-151.3-222.5
	c-31.8-32-66.5-60.9-103.7-86.4c-74.6-51-158.2-87.3-246.5-106.8c-22-4.9-44.2-8.7-66.5-11.4s-44.8-4.4-67.3-5
	c-45.1-1.1-90.1,2.3-134.5,10.3c-180.1,32.5-338.5,138.8-436.9,293.2c-48.6,76.2-81.3,162.6-96.3,251.9
	c-15,89.7-12.6,181.4,7.1,270.2c9.8,44.3,23.8,87.6,41.8,129.3c36.1,83.6,87.5,159.8,151.4,224.7c64,64.9,139.8,117,223.3,153.5
	l7.8,3.4l7.9,3.2l7.9,3.2l8,3l8,3l8,2.8l8,2.8l8.1,2.6c21.7,6.9,43.6,12.6,65.9,17.3c22.2,4.7,44.6,8.3,67.2,10.8
	c11.3,1.3,22.5,2.3,33.9,3l4.2,0.3l4.2,0.2l8.5,0.4c2.8,0.2,5.7,0.2,8.5,0.3l8.5,0.2c45.3,0.8,90.6-3,135.2-11.3
	C4980.3,1565.7,5065.1,1530.7,5140.1,1479.6L5140.1,1479.6z"/>
</svg>
