<?xml version="1.0" encoding="utf-8"?>
<!-- Generator: Adobe Illustrator 25.3.1, SVG Export Plug-In . SVG Version: 6.00 Build 0)  -->
<svg version="1.1" id="nishikigoi_1_" xmlns="http://www.w3.org/2000/svg" xmlns:xlink="http://www.w3.org/1999/xlink" x="0px"
	 y="0px" viewBox="0 0 4800 3496" style="enable-background:new 0 0 4800 3496;" xml:space="preserve">
<style type="text/css">
	.st0{opacity:0.57;fill:#FFFFFF;enable-background:new    ;}
</style>
<path class="st0" d="M4395.9,1653.6c-19.7,24.4-41.8,46.8-65.9,66.9c-148.4,123.8-356.9,145.9-528,55.9
	c-55.3-29.2-104.5-68.9-144.5-116.9c-60.2-72.3-97.6-160.8-107.4-254.4c-23.6-225,114.1-435.7,329.6-504.6
	c14.8-4.7,29.8-8.7,45.1-12c15.2-3.3,30.6-5.8,46-7.6c62.1-7.1,125-2,185.1,15c30.1,8.5,59.2,20,87,34.3
	c172.4,88.5,274.4,272.3,258.2,465.4c-2.6,31.4-8.5,62.4-17.4,92.6C4465.7,1548.5,4435.3,1604.9,4395.9,1653.6z M4387.8,1647.1
	c19.1-24,35.8-49.9,49.8-77.2c13.9-27.3,25.2-55.9,33.6-85.3c16.9-59,22.4-120.7,16.1-181.8c-16.4-155.8-109.2-293.2-247.5-366.6
	c-54.7-29-114.5-46.9-176.1-52.7c-190.6-17.9-373.1,81.4-461.5,251.1c-7.1,13.8-13.6,27.8-19.4,42.3c-5.8,14.4-10.8,29.1-15,44
	c-34.6,120.5-20,249.8,40.5,359.6c14.9,27.1,32.5,52.6,52.5,76.2c40,47.2,88.9,86.2,143.8,114.7c168.9,87.5,373.8,64.4,519.1-58.3
	C4347.2,1693.2,4368.6,1671.1,4387.8,1647.1L4387.8,1647.1z"/>
</svg>
