<?xml version="1.0" encoding="utf-8"?>
<!-- Generator: Adobe Illustrator 25.3.1, SVG Export Plug-In . SVG Version: 6.00 Build 0)  -->
<svg version="1.1" id="nishikigoi_1_" xmlns="http://www.w3.org/2000/svg" xmlns:xlink="http://www.w3.org/1999/xlink" x="0px"
	 y="0px" viewBox="0 0 4800 3496" style="enable-background:new 0 0 4800 3496;" xml:space="preserve">
<style type="text/css">
	.st0{opacity:0.57;fill:#FFFFFF;enable-background:new    ;}
</style>
<path class="st0" d="M2462.5,2172.2l2.6,19.6c0.6,6.6,1.1,13.1,1.6,19.7c0.2,1.6,0.2,3.3,0.2,4.9l0.2,4.9l0.3,9.9
	c0,0.8,0.1,1.6,0.1,2.5l-0.1,2.5l-0.1,4.9l-0.2,9.9c-1,26.4-4.5,52.6-10.7,78.3c-38.1,158.6-167.6,278.8-328.6,305
	c-26.1,4.2-52.6,6-79,5.2c-26.5-0.8-52.8-4.3-78.6-10.3c-218.4-50.6-354.4-268.6-303.9-487c0.1-0.4,0.2-0.8,0.3-1.3
	c12.3-52.2,35-101.4,66.7-144.7c31.6-43.3,71.4-79.9,117.2-107.7c22.8-13.9,46.9-25.4,72-34.6c50.2-18.3,103.5-26.5,156.8-24.1
	c163.6,7.1,306.8,111.9,363.1,265.6C2451.8,2120.5,2458.4,2146.1,2462.5,2172.2z M2462.1,2172.3c-4.3-26-11.1-51.6-20.3-76.3
	c-18.5-49.5-46.7-94.8-82.8-133.4c-54.3-57.9-124.6-98.4-201.9-116.4c-25.5-5.9-51.6-9.3-77.8-10.1c-52.5-1.6-104.7,7.1-153.8,25.5
	c-73.8,27.8-137.7,76.8-183.6,140.9c-30.4,42.5-52.3,90.4-64.7,141.1c-52.2,214.8,79.6,431.1,294.3,483.3
	c51.1,12.4,104.2,14.6,156.2,6.5c26.1-4.1,51.7-10.7,76.5-19.8s48.6-20.6,71.1-34.4C2414.2,2493.9,2488,2333.2,2462.1,2172.3
	L2462.1,2172.3z"/>
</svg>
