<?xml version="1.0" encoding="utf-8"?>
<!-- Generator: Adobe Illustrator 25.3.1, SVG Export Plug-In . SVG Version: 6.00 Build 0)  -->
<svg version="1.1" id="nishikigoi_1_" xmlns="http://www.w3.org/2000/svg" xmlns:xlink="http://www.w3.org/1999/xlink" x="0px"
	 y="0px" viewBox="0 0 4800 3496" style="enable-background:new 0 0 4800 3496;" xml:space="preserve">
<style type="text/css">
	.st0{opacity:0.57;fill:#FFFFFF;enable-background:new    ;}
</style>
<path class="st0" d="M1781.1,880.8c-28.4,18.2-58.5,33.5-89.9,45.9c-262.5,104.2-559.8-24.1-664-286.5
	c-63.3-159.5-42.5-340.1,55.6-480.9c9.5-13.6,19.7-26.8,30.5-39.5s22.2-24.8,34.2-36.3c24-23.1,50.1-43.8,78-61.9
	C1309.8-33.3,1408.4-62,1509-61c16.7,0.2,33.3,1.1,49.9,2.9c16.6,1.8,33.1,4.4,49.4,7.7C1674-36.8,1736.4-10.5,1792,27
	c27.8,18.8,53.7,40.3,77.2,64.2c23.6,23.9,44.8,50.1,63.3,78.2c75.4,114,102,253.5,73.9,387.3c-6.9,33.1-17.1,65.5-30.3,96.7
	c-13.3,31.2-29.8,60.9-49.2,88.7c-19.4,27.7-41.6,53.4-66.2,76.7C1836.2,841.8,1809.6,862.6,1781.1,880.8z M1773,868.2
	c27.4-17.9,52.9-38.6,76.2-61.6c23.2-23,44.1-48.2,62.5-75.3c18.3-27,34.1-55.6,47.2-85.6c39.5-90.5,51.5-190.6,34.6-287.9
	c-2.8-16.1-6.4-32.1-10.8-47.9s-9.5-31.4-15.4-46.7c-23.8-61.5-59.4-117.7-104.9-165.5c-45.6-48-100.2-86.4-160.8-113.2
	c-30.3-13.3-61.8-23.7-94.1-30.9c-97.8-21.9-199.9-14-293.2,22.8c-30.9,12.2-60.6,27.4-88.5,45.4c-56.1,36.1-104.3,83-141.8,138.1
	c-75.6,110.9-104.2,247.3-79.5,379.2c6.1,32.5,15.4,64.3,27.8,95c24.8,61.4,61.4,117.4,107.6,164.7
	C1307.2,970.4,1572.5,999.5,1773,868.2z"/>
</svg>
